<?xml version="1.0" encoding="UTF-8" standalone="no"?>
<svg  version="1.1" xmlns="http://www.w3.org/2000/svg" width="1632.76px" height="1380.28px">
<path d="M1632.76 0 L1632.76 1380.28 L0 1380.28 L0 0 L1632.76 0 Z " stroke="black" stroke-width="1" fill="none" />

<circle cx="414.992" cy="1146.86" r="12.0945" stroke="black" stroke-width="1" fill="none" />


<circle cx="414.992" cy="945.26" r="12.0945" stroke="black" stroke-width="1" fill="none" />


<circle cx="414.992" cy="448.403" r="12.0945" stroke="black" stroke-width="1" fill="none" />


<circle cx="414.992" cy="246.803" r="12.0945" stroke="black" stroke-width="1" fill="none" />


<circle cx="1217.76" cy="246.803" r="12.0945" stroke="black" stroke-width="1" fill="none" />


<circle cx="1217.76" cy="448.403" r="12.0945" stroke="black" stroke-width="1" fill="none" />


<circle cx="1217.76" cy="945.26" r="12.0945" stroke="black" stroke-width="1" fill="none" />


<circle cx="1217.76" cy="1146.86" r="12.0945" stroke="black" stroke-width="1" fill="none" />


<circle cx="237.392" cy="246.803" r="12.0945" stroke="black" stroke-width="1" fill="none" />


<circle cx="237.392" cy="448.403" r="12.0945" stroke="black" stroke-width="1" fill="none" />


<circle cx="237.392" cy="945.26" r="12.0945" stroke="black" stroke-width="1" fill="none" />


<circle cx="237.392" cy="1146.86" r="12.0945" stroke="black" stroke-width="1" fill="none" />


<circle cx="592.592" cy="1146.86" r="12.0945" stroke="black" stroke-width="1" fill="none" />


<circle cx="592.592" cy="945.26" r="12.0945" stroke="black" stroke-width="1" fill="none" />


<circle cx="592.592" cy="448.403" r="12.0945" stroke="black" stroke-width="1" fill="none" />


<circle cx="592.592" cy="246.803" r="12.0945" stroke="black" stroke-width="1" fill="none" />


<circle cx="1040.16" cy="1146.86" r="12.0945" stroke="black" stroke-width="1" fill="none" />


<circle cx="1040.16" cy="945.26" r="12.0945" stroke="black" stroke-width="1" fill="none" />


<circle cx="1040.16" cy="448.403" r="12.0945" stroke="black" stroke-width="1" fill="none" />


<circle cx="1040.16" cy="246.803" r="12.0945" stroke="black" stroke-width="1" fill="none" />


<circle cx="1395.36" cy="1146.86" r="12.0945" stroke="black" stroke-width="1" fill="none" />


<circle cx="1395.36" cy="945.26" r="12.0945" stroke="black" stroke-width="1" fill="none" />


<circle cx="1395.36" cy="448.403" r="12.0945" stroke="black" stroke-width="1" fill="none" />


<circle cx="1395.36" cy="246.803" r="12.0945" stroke="black" stroke-width="1" fill="none" />


<circle cx="903.307" cy="817.89" r="11.3386" stroke="black" stroke-width="1" fill="none" />


<circle cx="1485.35" cy="817.89" r="11.3386" stroke="black" stroke-width="1" fill="none" />


<circle cx="729.449" cy="817.89" r="11.3386" stroke="black" stroke-width="1" fill="none" />


<circle cx="147.402" cy="817.89" r="11.3386" stroke="black" stroke-width="1" fill="none" />


<circle cx="147.402" cy="817.89" r="15.874" stroke="black" stroke-width="1" fill="none" />


<circle cx="729.449" cy="817.89" r="15.874" stroke="black" stroke-width="1" fill="none" />


<circle cx="903.307" cy="817.89" r="15.874" stroke="black" stroke-width="1" fill="none" />


<circle cx="1485.35" cy="817.89" r="15.874" stroke="black" stroke-width="1" fill="none" />


<circle cx="199.559" cy="1046.06" r="15.874" stroke="black" stroke-width="1" fill="none" />


<circle cx="199.559" cy="1046.06" r="11.3386" stroke="black" stroke-width="1" fill="none" />


<circle cx="630.425" cy="1046.06" r="15.874" stroke="black" stroke-width="1" fill="none" />


<circle cx="630.425" cy="1046.06" r="11.3386" stroke="black" stroke-width="1" fill="none" />


<circle cx="1002.33" cy="1046.06" r="15.874" stroke="black" stroke-width="1" fill="none" />


<circle cx="1002.33" cy="1046.06" r="11.3386" stroke="black" stroke-width="1" fill="none" />


<circle cx="1433.2" cy="1046.06" r="15.874" stroke="black" stroke-width="1" fill="none" />


<circle cx="1433.2" cy="1046.06" r="11.3386" stroke="black" stroke-width="1" fill="none" />


<circle cx="1433.2" cy="347.603" r="15.874" stroke="black" stroke-width="1" fill="none" />


<circle cx="1433.2" cy="347.603" r="11.3386" stroke="black" stroke-width="1" fill="none" />


<circle cx="1002.33" cy="347.603" r="15.874" stroke="black" stroke-width="1" fill="none" />


<circle cx="1002.33" cy="347.603" r="11.3386" stroke="black" stroke-width="1" fill="none" />


<circle cx="630.425" cy="347.603" r="15.874" stroke="black" stroke-width="1" fill="none" />


<circle cx="630.425" cy="347.603" r="11.3386" stroke="black" stroke-width="1" fill="none" />


<circle cx="199.559" cy="347.603" r="15.874" stroke="black" stroke-width="1" fill="none" />


<circle cx="199.559" cy="347.603" r="11.3386" stroke="black" stroke-width="1" fill="none" />


</svg>
