<?xml version="1.0" encoding="UTF-8" standalone="no"?>
<svg  version="1.1" xmlns="http://www.w3.org/2000/svg" width="491.339px" height="264.567px">
<path d="M11.3386 0 C167.559 0, 323.78 0, 480 0 C486.262 0, 491.339 5.07646, 491.339 11.3386 C491.339 91.9685, 491.339 172.598, 491.339 253.228 C491.339 259.49, 486.262 264.567, 480 264.567 C323.78 264.567, 167.559 264.567, 11.3386 264.567 C5.07646 264.567, 0 259.49, 0 253.228 C0 172.598, 0 91.9685, 0 11.3386 C0 5.07646, 5.07646 0, 11.3386 0 Z " stroke="black" stroke-width="1" fill="none" />

<path d="M460.913 117.165 C461.039 117.165, 461.165 117.165, 461.291 117.165 C465.466 117.165, 468.85 120.55, 468.85 124.724 C468.85 129.764, 468.85 134.803, 468.85 139.843 C468.85 144.017, 465.466 147.402, 461.291 147.402 C461.165 147.402, 461.039 147.402, 460.913 147.402 C456.739 147.402, 453.354 144.017, 453.354 139.843 C453.354 134.803, 453.354 129.764, 453.354 124.724 C453.354 120.55, 456.739 117.165, 460.913 117.165 Z " stroke="black" stroke-width="1" fill="none" />

<path d="M30.0472 117.165 C30.1732 117.165, 30.2992 117.165, 30.4252 117.165 C34.5999 117.165, 37.9843 120.55, 37.9843 124.724 C37.9843 129.764, 37.9843 134.803, 37.9843 139.843 C37.9843 144.017, 34.5999 147.402, 30.4252 147.402 C30.2992 147.402, 30.1732 147.402, 30.0472 147.402 C25.8725 147.402, 22.4882 144.017, 22.4882 139.843 C22.4882 134.803, 22.4882 129.764, 22.4882 124.724 C22.4882 120.55, 25.8725 117.165, 30.0472 117.165 Z " stroke="black" stroke-width="1" fill="none" />

<circle cx="245.669" cy="233.083" r="6.04724" stroke="black" stroke-width="1" fill="none" />


<circle cx="245.669" cy="31.4835" r="6.04724" stroke="black" stroke-width="1" fill="none" />


<circle cx="68.0693" cy="31.4835" r="6.04724" stroke="black" stroke-width="1" fill="none" />


<circle cx="68.0693" cy="233.083" r="6.04724" stroke="black" stroke-width="1" fill="none" />


<circle cx="423.269" cy="233.083" r="6.04724" stroke="black" stroke-width="1" fill="none" />


<circle cx="423.269" cy="31.4835" r="6.04724" stroke="black" stroke-width="1" fill="none" />


</svg>
