<?xml version="1.0" encoding="UTF-8" standalone="no"?>
<svg  version="1.1" xmlns="http://www.w3.org/2000/svg" width="650.079px" height="272.504px">
<path d="M15.1181 0 C221.732 0, 428.346 0, 634.961 0 C641.223 0, 646.299 5.07646, 646.299 11.3386 C646.299 94.6142, 646.299 177.89, 646.299 261.165 C646.299 267.427, 641.223 272.504, 634.961 272.504 C428.346 272.504, 221.732 272.504, 15.1181 272.504 C8.85598 272.504, 3.77953 267.427, 3.77953 261.165 C3.77953 177.89, 3.77953 94.6142, 3.77953 11.3386 C3.77953 5.07646, 8.85598 0, 15.1181 0 Z " stroke="black" stroke-width="1" fill="none" />

<path d="M3.77953 113.386 C217.953 113.386, 432.126 113.386, 646.299 113.386 C648.387 113.386, 650.079 115.078, 650.079 117.165 C650.079 117.291, 650.079 117.417, 650.079 117.543 C650.079 119.631, 648.387 121.323, 646.299 121.323 C432.126 121.323, 217.953 121.323, 3.77953 121.323 C1.69215 121.323, 0 119.631, 0 117.543 C0 117.417, 0 117.291, 0 117.165 C0 115.078, 1.69215 113.386, 3.77953 113.386 Z " stroke="black" stroke-width="1" fill="none" />

<path d="M615.874 34.0157 C616 34.0157, 616.126 34.0157, 616.252 34.0157 C620.427 34.0157, 623.811 37.4001, 623.811 41.5748 C623.811 51.6535, 623.811 61.7323, 623.811 71.811 C623.811 75.9858, 620.427 79.3701, 616.252 79.3701 C616.126 79.3701, 616 79.3701, 615.874 79.3701 C611.699 79.3701, 608.315 75.9858, 608.315 71.811 C608.315 61.7323, 608.315 51.6535, 608.315 41.5748 C608.315 37.4001, 611.699 34.0157, 615.874 34.0157 Z " stroke="black" stroke-width="1" fill="none" />

<path d="M33.8268 34.0157 C33.9528 34.0157, 34.0787 34.0157, 34.2047 34.0157 C38.3795 34.0157, 41.7638 37.4001, 41.7638 41.5748 C41.7638 51.6535, 41.7638 61.7323, 41.7638 71.811 C41.7638 75.9858, 38.3795 79.3701, 34.2047 79.3701 C34.0787 79.3701, 33.9528 79.3701, 33.8268 79.3701 C29.652 79.3701, 26.2677 75.9858, 26.2677 71.811 C26.2677 61.7323, 26.2677 51.6535, 26.2677 41.5748 C26.2677 37.4001, 29.652 34.0157, 33.8268 34.0157 Z " stroke="black" stroke-width="1" fill="none" />

<circle cx="449.764" cy="202.583" r="6.04724" stroke="black" stroke-width="1" fill="none" />


<circle cx="158.74" cy="168.567" r="6.04724" stroke="black" stroke-width="1" fill="none" />


<circle cx="158.74" cy="236.598" r="6.04724" stroke="black" stroke-width="1" fill="none" />


</svg>
