<?xml version="1.0" encoding="UTF-8" standalone="no"?>
<!-- Created with Inkscape (http://www.inkscape.org/) -->

<svg
   width="297mm"
   height="210mm"
   viewBox="0 0 297 210"
   version="1.1"
   id="svg5"
   inkscape:version="1.3.2 (091e20e, 2023-11-25, custom)"
   sodipodi:docname="bat_clk_tc1_ring.svg"
   xml:space="preserve"
   xmlns:inkscape="http://www.inkscape.org/namespaces/inkscape"
   xmlns:sodipodi="http://sodipodi.sourceforge.net/DTD/sodipodi-0.dtd"
   xmlns="http://www.w3.org/2000/svg"
   xmlns:svg="http://www.w3.org/2000/svg"><sodipodi:namedview
     id="namedview7"
     pagecolor="#ffffff"
     bordercolor="#666666"
     borderopacity="1.0"
     inkscape:pageshadow="2"
     inkscape:pageopacity="0.0"
     inkscape:pagecheckerboard="0"
     inkscape:document-units="mm"
     showgrid="false"
     inkscape:snap-global="true"
     inkscape:zoom="1.3651485"
     inkscape:cx="272.86409"
     inkscape:cy="398.12519"
     inkscape:window-width="1920"
     inkscape:window-height="1177"
     inkscape:window-x="1912"
     inkscape:window-y="-8"
     inkscape:window-maximized="1"
     inkscape:current-layer="layer1"
     inkscape:showpageshadow="2"
     inkscape:deskcolor="#d1d1d1" /><defs
     id="defs2" /><g
     inkscape:label="Laag 1"
     inkscape:groupmode="layer"
     id="layer1"><path
       d="M 75.700021,15.300033 V 194.69997 H 2.9000417 V 15.300033 Z"
       stroke="#000000"
       stroke-width="0.264583"
       fill="none"
       id="path1104" /><path
       d="M 148.5,15.300033 V 194.69997 H 75.70002 V 15.300033 Z"
       stroke="#000000"
       stroke-width="0.264583"
       fill="none"
       id="path1179" /><path
       d="M 221.29998,15.300033 V 194.69997 H 148.5 V 15.300033 Z"
       stroke="#000000"
       stroke-width="0.264583"
       fill="none"
       id="path1408" /><path
       d="M 294.09996,15.300033 V 194.69997 H 221.29998 V 15.300033 Z"
       stroke="#000000"
       stroke-width="0.264583"
       fill="none"
       id="path1529" /><text
       xml:space="preserve"
       style="font-weight:bold;font-size:7px;line-height:1.25;font-family:'Tw Cen MT';-inkscape-font-specification:'Tw Cen MT, Bold';letter-spacing:0px;word-spacing:0px;stroke-width:0.264583"
       x="88.023849"
       y="35.264"
       id="text8892-0-4"><tspan
         sodipodi:role="line"
         id="tspan8890-9-6"
         style="font-style:normal;font-variant:normal;font-weight:bold;font-stretch:normal;font-size:7px;font-family:'Orbitron Black';-inkscape-font-specification:'Orbitron Black,  Bold';stroke-width:0.264583"
         x="88.023849"
         y="35.264">Clock/Timer</tspan></text><text
       xml:space="preserve"
       style="font-weight:bold;font-size:7.00003px;line-height:1.25;font-family:'Tw Cen MT';-inkscape-font-specification:'Tw Cen MT, Bold';letter-spacing:0px;word-spacing:0px;stroke-width:0.264584"
       x="162.80475"
       y="35.26408"
       id="text8892-0-4-2"><tspan
         sodipodi:role="line"
         id="tspan8890-9-6-8"
         style="font-style:normal;font-variant:normal;font-weight:bold;font-stretch:normal;font-size:7.00003px;font-family:'Orbitron Black';-inkscape-font-specification:'Orbitron Black,  Bold';stroke-width:0.264584"
         x="162.80475"
         y="35.26408">Ring tester</tspan></text><text
       xml:space="preserve"
       style="font-weight:bold;font-size:7.00003px;line-height:1.25;font-family:'Tw Cen MT';-inkscape-font-specification:'Tw Cen MT, Bold';letter-spacing:0px;word-spacing:0px;stroke-width:0.264584"
       x="250.73181"
       y="35.26408"
       id="text8892-0-4-5"><tspan
         sodipodi:role="line"
         id="tspan8890-9-6-0"
         style="font-style:normal;font-variant:normal;font-weight:bold;font-stretch:normal;font-size:7.00003px;font-family:'Orbitron Black';-inkscape-font-specification:'Orbitron Black,  Bold';stroke-width:0.264584"
         x="250.73181"
         y="35.26408">TC1</tspan></text><text
       xml:space="preserve"
       style="font-weight:bold;font-size:7.00003px;line-height:1.25;font-family:'Tw Cen MT';-inkscape-font-specification:'Tw Cen MT, Bold';letter-spacing:0px;word-spacing:0px;stroke-width:0.264584"
       x="10.642221"
       y="35.264084"
       id="text8892-0-4-23"><tspan
         sodipodi:role="line"
         id="tspan8890-9-6-9"
         style="font-style:normal;font-variant:normal;font-weight:bold;font-stretch:normal;font-size:7.00003px;font-family:'Orbitron Black';-inkscape-font-specification:'Orbitron Black,  Bold';stroke-width:0.264584"
         x="10.642221"
         y="35.264084">Battery tester</tspan></text><text
       xml:space="preserve"
       style="font-weight:bold;font-size:7.00003px;line-height:1.25;font-family:'Tw Cen MT';-inkscape-font-specification:'Tw Cen MT, Bold';letter-spacing:0px;word-spacing:0px;stroke-width:0.264584"
       x="20.427782"
       y="143.604"
       id="text8892-0-4-23-2"><tspan
         sodipodi:role="line"
         id="tspan8890-9-6-9-6"
         style="font-style:normal;font-variant:normal;font-weight:bold;font-stretch:normal;font-size:7.00003px;font-family:'Orbitron Black';-inkscape-font-specification:'Orbitron Black,  Bold';stroke-width:0.264584"
         x="20.427782"
         y="143.604">-</tspan></text><text
       xml:space="preserve"
       style="font-weight:bold;font-size:7.00003px;line-height:1.25;font-family:'Tw Cen MT';-inkscape-font-specification:'Tw Cen MT, Bold';letter-spacing:0px;word-spacing:0px;stroke-width:0.264584"
       x="54.721718"
       y="143.597"
       id="text8892-0-4-23-2-4"><tspan
         sodipodi:role="line"
         id="tspan8890-9-6-9-6-4"
         style="font-style:normal;font-variant:normal;font-weight:bold;font-stretch:normal;font-size:7.00003px;font-family:'Orbitron Black';-inkscape-font-specification:'Orbitron Black,  Bold';stroke-width:0.264584"
         x="54.721718"
         y="143.597">+</tspan></text><circle
       cx="22.300289"
       cy="96.30024"
       r="3.4500079"
       stroke="#000000"
       stroke-width="0.264583"
       fill="none"
       id="circle6" /><circle
       cx="56.300224"
       cy="96.30024"
       r="3.4500079"
       stroke="#000000"
       stroke-width="0.264583"
       fill="none"
       id="circle7" /><circle
       cx="95.100288"
       cy="96.30024"
       r="6.0000091"
       stroke="#000000"
       stroke-width="0.264583"
       fill="none"
       id="circle6-8" /><circle
       cx="129.10022"
       cy="96.30024"
       r="3.4500079"
       stroke="#000000"
       stroke-width="0.264583"
       fill="none"
       id="circle7-2" /><circle
       cx="201.90022"
       cy="96.30024"
       r="3.4500079"
       stroke="#000000"
       stroke-width="0.264583"
       fill="none"
       id="circle6-2" /><circle
       cx="240.70029"
       cy="96.30024"
       r="6.0000091"
       stroke="#000000"
       stroke-width="0.264583"
       fill="none"
       id="circle6-3" /><circle
       cx="274.70023"
       cy="96.30024"
       r="6.0000091"
       stroke="#000000"
       stroke-width="0.264583"
       fill="none"
       id="circle7-3" /><g
       style="clip-rule:evenodd;fill-rule:evenodd;image-rendering:optimizeQuality;shape-rendering:geometricPrecision;text-rendering:geometricPrecision"
       id="g5"
       transform="matrix(0.02153494,0,0,0.02153494,33.787406,150.91957)"><path
         fill-rule="nonzero"
         d="m 472.06,38.53 v 29.62 h 27.84 c 3.36,0 6.38,1.37 8.55,3.55 2.19,2.19 3.55,5.25 3.55,8.55 v 97.76 c 0,3.32 -1.39,6.37 -3.56,8.54 -2.17,2.16 -5.22,3.56 -8.54,3.56 h -27.84 v 29.61 c 0,21.2 -17.35,38.53 -38.53,38.53 h -395 C 17.33,258.25 0,240.93 0,219.72 V 38.53 C 0,17.35 17.37,0 38.53,0 h 395 c 21.22,0 38.53,17.31 38.53,38.53 z m -69.88,10.01 c 8.57,0 15.59,7.13 15.59,15.59 v 129.99 c 0,8.46 -7.13,15.59 -15.59,15.59 H 69.88 c -8.46,0 -15.58,-7.02 -15.58,-15.59 V 64.13 c 0,-8.57 7.01,-15.59 15.58,-15.59 z M 446.6,216.95 V 41.3 c 0,-8.69 -7.15,-15.84 -15.83,-15.84 H 41.3 c -8.71,0 -15.84,7.13 -15.84,15.84 v 175.65 c 0,8.68 7.17,15.84 15.84,15.84 h 389.47 c 8.69,0 15.83,-7.12 15.83,-15.84 z"
         id="path1-8" /></g><text
       xml:space="preserve"
       style="font-weight:bold;font-size:5px;line-height:1.25;font-family:'Tw Cen MT';-inkscape-font-specification:'Tw Cen MT, Bold';letter-spacing:0px;word-spacing:0px;stroke-width:0.264584"
       x="236.72279"
       y="130.60001"
       id="text8892-0-4-5-5"><tspan
         sodipodi:role="line"
         id="tspan8890-9-6-0-3"
         style="font-style:normal;font-variant:normal;font-weight:bold;font-stretch:normal;font-size:5px;font-family:'Orbitron Black';-inkscape-font-specification:'Orbitron Black,  Bold';stroke-width:0.264584"
         x="236.72279"
         y="130.60001">1</tspan></text><text
       xml:space="preserve"
       style="font-weight:bold;font-size:5px;line-height:1.25;font-family:'Tw Cen MT';-inkscape-font-specification:'Tw Cen MT, Bold';letter-spacing:0px;word-spacing:0px;stroke-width:0.264584"
       x="255.64772"
       y="130.60001"
       id="text8892-0-4-5-5-5"><tspan
         sodipodi:role="line"
         id="tspan8890-9-6-0-3-6"
         style="font-style:normal;font-variant:normal;font-weight:bold;font-stretch:normal;font-size:5px;font-family:'Orbitron Black';-inkscape-font-specification:'Orbitron Black,  Bold';stroke-width:0.264584"
         x="255.64772"
         y="130.60001">2</tspan></text><text
       xml:space="preserve"
       style="font-weight:bold;font-size:5px;line-height:1.25;font-family:'Tw Cen MT';-inkscape-font-specification:'Tw Cen MT, Bold';letter-spacing:0px;word-spacing:0px;stroke-width:0.264584"
       x="275.66785"
       y="130.60001"
       id="text8892-0-4-5-5-8"><tspan
         sodipodi:role="line"
         id="tspan8890-9-6-0-3-7"
         style="font-style:normal;font-variant:normal;font-weight:bold;font-stretch:normal;font-size:5px;font-family:'Orbitron Black';-inkscape-font-specification:'Orbitron Black,  Bold';stroke-width:0.264584"
         x="275.66785"
         y="130.60001">3</tspan></text><text
       xml:space="preserve"
       style="font-weight:bold;font-size:5px;line-height:1.25;font-family:'Tw Cen MT';-inkscape-font-specification:'Tw Cen MT, Bold';letter-spacing:0px;word-spacing:0px;stroke-width:0.264584"
       x="235.67778"
       y="155.60001"
       id="text8892-0-4-5-5-7"><tspan
         sodipodi:role="line"
         id="tspan8890-9-6-0-3-8"
         style="font-style:normal;font-variant:normal;font-weight:bold;font-stretch:normal;font-size:5px;font-family:'Orbitron Black';-inkscape-font-specification:'Orbitron Black,  Bold';stroke-width:0.264584"
         x="235.67778"
         y="155.60001">K</tspan></text><text
       xml:space="preserve"
       style="font-weight:bold;font-size:5px;line-height:1.25;font-family:'Tw Cen MT';-inkscape-font-specification:'Tw Cen MT, Bold';letter-spacing:0px;word-spacing:0px;stroke-width:0.264584"
       x="275.61035"
       y="155.60001"
       id="text8892-0-4-5-5-75"><tspan
         sodipodi:role="line"
         id="tspan8890-9-6-0-3-9"
         style="font-style:normal;font-variant:normal;font-weight:bold;font-stretch:normal;font-size:5px;font-family:'Orbitron Black';-inkscape-font-specification:'Orbitron Black,  Bold';stroke-width:0.264584"
         x="275.61035"
         y="155.60001">A</tspan></text><text
       xml:space="preserve"
       style="font-weight:bold;font-size:4.5px;line-height:1.25;font-family:'Tw Cen MT';-inkscape-font-specification:'Tw Cen MT, Bold';letter-spacing:0px;word-spacing:0px;stroke-width:0.264584"
       x="234.92229"
       y="83.384003"
       id="text8892-0-4-5-5-3"><tspan
         sodipodi:role="line"
         id="tspan8890-9-6-0-3-4"
         style="font-style:normal;font-variant:normal;font-weight:bold;font-stretch:normal;font-size:4.5px;font-family:'Orbitron Black';-inkscape-font-specification:'Orbitron Black,  Bold';stroke-width:0.264584"
         x="234.92229"
         y="83.384003">Test</tspan></text><g
       id="g1"
       transform="translate(38.419604,-47.736089)"><text
         xml:space="preserve"
         style="font-weight:bold;font-size:4.5px;line-height:1.25;font-family:'Tw Cen MT';-inkscape-font-specification:'Tw Cen MT, Bold';letter-spacing:0px;word-spacing:0px;stroke-width:0.264584"
         x="232.85162"
         y="130.97609"
         id="text8892-0-4-5-5-9"><tspan
           sodipodi:role="line"
           id="tspan8890-9-6-0-3-5"
           style="font-style:normal;font-variant:normal;font-weight:bold;font-stretch:normal;font-size:4.5px;font-family:'Orbitron Black';-inkscape-font-specification:'Orbitron Black,  Bold';stroke-width:0.264584"
           x="232.85162"
           y="130.97609">On</tspan></text></g><text
       xml:space="preserve"
       style="font-weight:bold;font-size:4.5px;line-height:1.25;font-family:'Tw Cen MT';-inkscape-font-specification:'Tw Cen MT, Bold';letter-spacing:0px;word-spacing:0px;stroke-width:0.264584"
       x="255.33322"
       y="106.24"
       id="text8892-0-4-5-5-4"><tspan
         sodipodi:role="line"
         id="tspan8890-9-6-0-3-93"
         style="font-style:normal;font-variant:normal;font-weight:bold;font-stretch:normal;font-size:4.5px;font-family:'Orbitron Black';-inkscape-font-specification:'Orbitron Black,  Bold';stroke-width:0.264584"
         x="255.33322"
         y="106.24">IR</tspan></text><text
       xml:space="preserve"
       style="font-weight:bold;font-size:7.00003px;line-height:1.25;font-family:'Tw Cen MT';-inkscape-font-specification:'Tw Cen MT, Bold';letter-spacing:0px;word-spacing:0px;stroke-width:0.264584"
       x="166.02777"
       y="143.604"
       id="text8892-0-4-23-2-5"><tspan
         sodipodi:role="line"
         id="tspan8890-9-6-9-6-1"
         style="font-style:normal;font-variant:normal;font-weight:bold;font-stretch:normal;font-size:7.00003px;font-family:'Orbitron Black';-inkscape-font-specification:'Orbitron Black,  Bold';stroke-width:0.264584"
         x="166.02777"
         y="143.604">-</tspan></text><text
       xml:space="preserve"
       style="font-weight:bold;font-size:7.00003px;line-height:1.25;font-family:'Tw Cen MT';-inkscape-font-specification:'Tw Cen MT, Bold';letter-spacing:0px;word-spacing:0px;stroke-width:0.264584"
       x="200.32172"
       y="143.597"
       id="text8892-0-4-23-2-4-2"><tspan
         sodipodi:role="line"
         id="tspan8890-9-6-9-6-4-5"
         style="font-style:normal;font-variant:normal;font-weight:bold;font-stretch:normal;font-size:7.00003px;font-family:'Orbitron Black';-inkscape-font-specification:'Orbitron Black,  Bold';stroke-width:0.264584"
         x="200.32172"
         y="143.597">+</tspan></text><g
       style="fill:#000000"
       id="g6"
       transform="matrix(0,0.05194805,-0.05194805,0,190.92632,147.6743)"><g
         id="g2"><path
           d="m 83.329,140.575 c 0,-9.533 -3.671,-18.651 -9.979,-25.536 6.307,-6.885 9.977,-16.002 9.977,-25.535 0,-9.527 -3.67,-18.639 -9.977,-25.522 6.348,-6.906 9.96,-16.129 9.96,-25.547 0,-9.986 -4.032,-19.747 -11.068,-26.786 C 65.144,4.563 55.413,0.5 45.541,0.5 H 0 v 16 h 45.541 c 5.665,0 11.271,2.359 15.386,6.467 3.994,3.994 6.371,9.777 6.371,15.468 0,5.726 -2.325,11.321 -6.356,15.351 -1.264,1.262 -2.717,2.368 -4.273,3.289 L 56.6,70.833 c 6.656,3.964 10.365,10.943 10.365,18.671 0,7.61 -3.964,14.763 -10.964,18.666 v 13.738 c 7,3.904 10.966,11.057 10.966,18.667 0,7.901 -4.019,15.188 -10.939,19.017 l 0.055,14.008 c 1.789,0.985 3.441,2.209 4.87,3.641 4.04,4.037 6.367,9.644 6.367,15.381 0,5.754 -2.312,11.371 -6.346,15.406 -4.121,4.113 -9.714,6.473 -15.355,6.473 H 0 v 16 h 45.618 c 9.848,0 19.565,-4.064 26.669,-11.153 7.018,-7.019 11.043,-16.76 11.043,-26.726 0,-9.644 -3.781,-19.081 -10.401,-26.038 6.577,-6.916 10.4,-16.189 10.4,-26.009 z"
           id="path1-5" /><path
           d="M 187.125,16.5 H 232 v -16 h -44.875 c -9.872,0 -19.604,4.063 -26.708,11.154 -7.029,7.033 -11.062,16.794 -11.062,26.78 0,9.417 3.612,18.64 9.96,25.547 -6.307,6.883 -9.976,15.995 -9.976,25.522 0,9.533 3.67,18.65 9.976,25.535 -6.308,6.885 -9.979,16.003 -9.979,25.536 0,9.82 3.823,19.093 10.4,26.008 -6.621,6.96 -10.401,16.397 -10.401,26.038 0,9.966 4.025,19.707 11.048,26.73 7.099,7.085 16.816,11.148 26.664,11.148 H 232 v -16 h -44.952 c -5.641,0 -11.233,-2.359 -15.349,-6.468 -4.04,-4.04 -6.351,-9.657 -6.351,-15.411 0,-5.737 2.328,-11.344 6.372,-15.385 1.426,-1.428 3.081,-2.651 4.87,-3.637 l 0.063,-14.008 c -6.92,-3.829 -11.288,-11.115 -11.288,-19.017 0,-7.61 3.633,-14.763 10.633,-18.667 V 108.17 c -7,-3.903 -10.631,-11.056 -10.631,-18.666 0,-7.728 3.861,-14.707 10.516,-18.671 l 0.023,-13.758 c -1.557,-0.921 -2.964,-2.027 -4.225,-3.287 -4.034,-4.032 -6.337,-9.628 -6.337,-15.354 0,-5.691 2.389,-11.474 6.376,-15.462 4.122,-4.113 9.74,-6.472 15.405,-6.472 z"
           id="path2-23" /><rect
           width="16"
           x="108"
           y="0.5"
           height="231"
           id="rect2" /></g></g><text
       xml:space="preserve"
       style="font-weight:bold;font-size:4.5px;line-height:1.25;font-family:'Tw Cen MT';-inkscape-font-specification:'Tw Cen MT, Bold';letter-spacing:0px;word-spacing:0px;stroke-width:0.264584"
       x="81.31678"
       y="82.866501"
       id="text8892-0-4-5-5-3-9"><tspan
         sodipodi:role="line"
         style="font-style:normal;font-variant:normal;font-weight:bold;font-stretch:normal;font-size:4.5px;font-family:'Orbitron Black';-inkscape-font-specification:'Orbitron Black,  Bold';stroke-width:0.264584"
         x="81.31678"
         y="82.866501"
         id="tspan7">Start/Stop</tspan></text><text
       xml:space="preserve"
       style="font-weight:bold;font-size:4.5px;line-height:1.25;font-family:'Tw Cen MT';-inkscape-font-specification:'Tw Cen MT, Bold';letter-spacing:0px;word-spacing:0px;stroke-width:0.264584"
       x="87.585289"
       y="113.15239"
       id="text8892-0-4-5-5-3-9-3"><tspan
         sodipodi:role="line"
         style="font-style:normal;font-variant:normal;font-weight:bold;font-stretch:normal;font-size:4.5px;font-family:'Orbitron Black';-inkscape-font-specification:'Orbitron Black,  Bold';stroke-width:0.264584"
         x="87.585289"
         y="113.15239"
         id="tspan7-9">Reset</tspan></text></g></svg>
