<?xml version="1.0" encoding="UTF-8" standalone="no"?>
<svg  version="1.1" xmlns="http://www.w3.org/2000/svg" width="271.671px" height="411.697px">
<circle cx="185.232" cy="257.75" r="13.0394" stroke="black" stroke-width="1" fill="none" />


<circle cx="185.232" cy="235.073" r="6.04724" stroke="black" stroke-width="1" fill="none" />


<circle cx="32.5392" cy="18.9219" r="6.04724" stroke="black" stroke-width="1" fill="none" />


<circle cx="32.5392" cy="374.122" r="6.04724" stroke="black" stroke-width="1" fill="none" />


<path d="M92.8996 370.122 C148.711 370.122, 204.522 370.122, 260.333 370.122 C266.595 370.122, 271.671 375.198, 271.671 381.46 C271.671 386.5, 271.671 391.539, 271.671 396.579 C271.671 402.841, 266.595 407.917, 260.333 407.917 C204.522 407.917, 148.711 407.917, 92.8996 407.917 C86.6374 407.917, 81.561 402.841, 81.561 396.579 C81.561 391.539, 81.561 386.5, 81.561 381.46 C81.561 375.198, 86.6374 370.122, 92.8996 370.122 Z " stroke="black" stroke-width="1" fill="none" />

<path d="M1.11242 391.878 C0.6314 391.383, 0.286777 390.73, 0.122183 390.06 C-0.0863668 389.211, 0.0352538 388.313, 0.0352538 387.439 C0.0352538 386.185, 0.0352538 384.931, 0.0352538 383.677 C0.0352538 378.662, 0.0352538 373.646, 0.0352538 368.631 C0.0352538 354.839, 0.0352538 341.046, 0.0352538 327.254 C0.0352538 284.623, 0.0352538 241.993, 0.0352538 199.362 C0.0352538 155.477, 0.0352538 111.593, 0.0352538 67.7083 C0.0352538 53.2891, 0.0352538 38.8699, 0.0352538 24.4506 C0.0352538 19.4353, 0.0352538 14.4199, 0.0352538 9.40451 C0.0352538 8.15067, 0.0352538 6.89682, 0.0352538 5.64298 C0.0352538 4.83702, -0.0428719 4.02196, 0.0806082 3.22552 C0.190862 2.51438, 0.52816 1.81285, 1.00659 1.27528 C1.49541 0.726047, 2.18027 0.304459, 2.89636 0.137644 C3.79544 -0.0718023, 4.74035 0.0242582, 5.66351 0.0242582 C8.16377 0.0242582, 10.664 0.0242582, 13.1643 0.0242582 C21.2901 0.0242582, 29.4159 0.0242582, 37.5417 0.0242582 C60.6691 0.0242582, 83.7964 0.0242582, 106.924 0.0242582 C136.302 0.0242582, 165.68 0.0242582, 195.058 0.0242582 C205.059 0.0242582, 215.06 0.0242582, 225.061 0.0242582 C228.186 0.0242582, 231.311 0.0242582, 234.437 0.0242582 C235.062 0.0242582, 235.687 0.0242582, 236.312 0.0242582 C237.116 0.0242582, 237.929 -0.0535828, 238.724 0.0696125 C239.213 0.14552, 239.695 0.326235, 240.118 0.583628 C240.932 1.07846, 241.573 1.96322, 241.812 2.88536 C242.043 3.78155, 241.925 4.73439, 241.925 5.66006 C241.925 6.28764, 241.925 6.91522, 241.925 7.5428 C241.925 10.6807, 241.925 13.8186, 241.925 16.9565 C241.925 26.9977, 241.925 37.039, 241.925 47.0802 C241.925 76.5764, 241.925 106.073, 241.925 135.569 C241.925 171.968, 241.925 208.368, 241.925 244.767 C241.925 257.319, 241.925 269.87, 241.925 282.422 C241.925 286.187, 241.925 289.953, 241.925 293.718 C241.925 294.974, 241.925 296.229, 241.925 297.484 C241.925 298.299, 242.001 299.124, 241.876 299.93 C241.767 300.633, 241.428 301.324, 240.954 301.854 C240.463 302.401, 239.78 302.824, 239.064 302.991 C238.162 303.201, 237.215 303.105, 236.289 303.105 C235.661 303.105, 235.034 303.105, 234.406 303.105 C231.896 303.105, 229.385 303.105, 226.874 303.105 C217.46 303.105, 208.045 303.105, 198.631 303.105 C169.759 303.105, 140.888 303.105, 112.016 303.105 C101.974 303.105, 91.9319 303.105, 81.8897 303.105 C78.7515 303.105, 75.6133 303.105, 72.4751 303.105 C71.8475 303.105, 71.2198 303.105, 70.5922 303.105 C69.7728 303.105, 68.9401 303.014, 68.1348 303.165 C67.6611 303.254, 67.1948 303.434, 66.7893 303.694 C65.9308 304.246, 65.2786 305.238, 65.0923 306.242 C64.9461 307.029, 65.0393 307.842, 65.0393 308.643 C65.0393 309.893, 65.0393 311.143, 65.0393 312.394 C65.0393 317.395, 65.0393 322.397, 65.0393 327.398 C65.0393 341.153, 65.0393 354.907, 65.0393 368.661 C65.0393 373.663, 65.0393 378.665, 65.0393 383.666 C65.0393 384.917, 65.0393 386.167, 65.0393 387.417 C65.0393 388.513, 65.1938 389.69, 64.7483 390.691 C64.5188 391.207, 64.1803 391.688, 63.7656 392.071 C63.2211 392.574, 62.4756 392.898, 61.7398 392.989 C60.9841 393.083, 60.217 393.019, 59.4555 393.019 C57.5945 393.019, 55.7335 393.019, 53.8726 393.019 C48.2896 393.019, 42.7066 393.018, 37.1236 393.018 C29.6797 393.017, 22.2357 393.017, 14.7917 393.016 C12.3104 393.016, 9.82911 393.016, 7.34779 393.016 C6.72746 393.016, 6.10713 393.016, 5.4868 393.016 C4.63528 393.016, 3.75938 393.127, 2.93415 392.917 C2.2566 392.745, 1.62593 392.353, 1.11242 391.878 Z " stroke="black" stroke-width="1" fill="none" />

<path d="M100.081 382.972 C102.852 382.972, 105.624 382.972, 108.396 382.972 C111.527 382.972, 114.065 385.51, 114.065 388.642 C114.065 388.894, 114.065 389.145, 114.065 389.397 C114.065 392.529, 111.527 395.067, 108.396 395.067 C105.624 395.067, 102.852 395.067, 100.081 395.067 C96.9496 395.067, 94.4114 392.529, 94.4114 389.397 C94.4114 389.145, 94.4114 388.894, 94.4114 388.642 C94.4114 385.51, 96.9496 382.972, 100.081 382.972 Z " stroke="black" stroke-width="1" fill="none" />

<path d="M244.837 382.972 C247.608 382.972, 250.38 382.972, 253.152 382.972 C256.283 382.972, 258.821 385.51, 258.821 388.642 C258.821 388.894, 258.821 389.145, 258.821 389.397 C258.821 392.529, 256.283 395.067, 253.152 395.067 C250.38 395.067, 247.608 395.067, 244.837 395.067 C241.706 395.067, 239.167 392.529, 239.167 389.397 C239.167 389.145, 239.167 388.894, 239.167 388.642 C239.167 385.51, 241.706 382.972, 244.837 382.972 Z " stroke="black" stroke-width="1" fill="none" />

<path d="M222.159 366.342 C222.285 366.342, 222.411 366.342, 222.537 366.342 C224.625 366.342, 226.317 368.034, 226.317 370.122 C226.317 382.72, 226.317 395.319, 226.317 407.917 C226.317 410.005, 224.625 411.697, 222.537 411.697 C222.411 411.697, 222.285 411.697, 222.159 411.697 C220.072 411.697, 218.38 410.005, 218.38 407.917 C218.38 395.319, 218.38 382.72, 218.38 370.122 C218.38 368.034, 220.072 366.342, 222.159 366.342 Z " stroke="black" stroke-width="1" fill="none" />

<path d="M221.942 315.507 C222.068 315.507, 222.194 315.507, 222.319 315.507 C224.407 315.507, 226.099 317.199, 226.099 319.287 C226.099 331.885, 226.099 344.483, 226.099 357.082 C226.099 359.169, 224.407 360.861, 222.319 360.861 C222.194 360.861, 222.068 360.861, 221.942 360.861 C219.854 360.861, 218.162 359.169, 218.162 357.082 C218.162 344.483, 218.162 331.885, 218.162 319.287 C218.162 317.199, 219.854 315.507, 221.942 315.507 Z " stroke="black" stroke-width="1" fill="none" />

<path d="M244.619 332.137 C247.39 332.137, 250.162 332.137, 252.934 332.137 C256.065 332.137, 258.603 334.675, 258.603 337.806 C258.603 338.058, 258.603 338.31, 258.603 338.562 C258.603 341.693, 256.065 344.231, 252.934 344.231 C250.162 344.231, 247.39 344.231, 244.619 344.231 C241.488 344.231, 238.949 341.693, 238.949 338.562 C238.949 338.31, 238.949 338.058, 238.949 337.806 C238.949 334.675, 241.488 332.137, 244.619 332.137 Z " stroke="black" stroke-width="1" fill="none" />

<path d="M99.8628 332.137 C102.634 332.137, 105.406 332.137, 108.178 332.137 C111.309 332.137, 113.847 334.675, 113.847 337.806 C113.847 338.058, 113.847 338.31, 113.847 338.562 C113.847 341.693, 111.309 344.231, 108.178 344.231 C105.406 344.231, 102.634 344.231, 99.8628 344.231 C96.7317 344.231, 94.1935 341.693, 94.1935 338.562 C94.1935 338.31, 94.1935 338.058, 94.1935 337.806 C94.1935 334.675, 96.7317 332.137, 99.8628 332.137 Z " stroke="black" stroke-width="1" fill="none" />

<path d="M92.6817 319.287 C148.493 319.287, 204.304 319.287, 260.115 319.287 C266.377 319.287, 271.453 324.363, 271.453 330.625 C271.453 335.664, 271.453 340.704, 271.453 345.743 C271.453 352.005, 266.377 357.082, 260.115 357.082 C204.304 357.082, 148.493 357.082, 92.6817 357.082 C86.4196 357.082, 81.3431 352.005, 81.3431 345.743 C81.3431 340.704, 81.3431 335.664, 81.3431 330.625 C81.3431 324.363, 86.4196 319.287, 92.6817 319.287 Z " stroke="black" stroke-width="1" fill="none" />

<path d="M196.112 172.32 C196.112 172.32, 196.891 172.078, 196.891 172.078 C196.891 172.078, 197.597 171.693, 197.597 171.693 C197.597 171.693, 198.214 171.186, 198.214 171.186 C198.214 171.186, 198.72 170.57, 198.72 170.57 C198.72 170.57, 199.102 169.864, 199.102 169.864 C199.102 169.864, 199.347 169.085, 199.347 169.085 C199.347 169.085, 199.431 168.246, 199.431 168.246 C199.431 168.246, 199.347 167.407, 199.347 167.407 C199.347 167.407, 199.102 166.628, 199.102 166.628 C199.102 166.628, 198.72 165.922, 198.72 165.922 C198.72 165.922, 198.24 165.339, 198.24 165.339 C198.24 165.339, 198.214 155.962, 198.214 155.962 C198.214 155.962, 198.255 155.301, 198.255 155.301 C198.255 155.301, 198.38 154.655, 198.38 154.655 C198.38 154.655, 198.66 153.963, 198.66 153.963 C198.66 153.963, 199.079 153.332, 199.079 153.332 C199.079 153.332, 199.612 152.791, 199.612 152.791 C199.612 152.791, 200.228 152.372, 200.228 152.372 C200.228 152.372, 200.617 152.198, 200.617 152.198 C200.617 152.198, 201.026 152.073, 201.026 152.073 C201.026 152.073, 201.883 151.945, 201.883 151.945 C201.883 151.945, 221.284 151.918, 221.284 151.918 C221.284 151.918, 222.38 151.612, 222.38 151.612 C222.38 151.612, 222.89 151.351, 222.89 151.351 C222.89 151.351, 223.355 151.023, 223.355 151.023 C223.355 151.023, 223.759 150.63, 223.759 150.63 C223.759 150.63, 224.1 150.172, 224.1 150.172 C224.1 150.172, 224.368 149.666, 224.368 149.666 C224.368 149.666, 224.557 149.125, 224.557 149.125 C224.557 149.125, 224.67 148.543, 224.67 148.543 C224.67 148.543, 224.716 147.602, 224.716 147.602 C224.716 147.602, 224.697 65.885, 224.697 65.885 C224.697 65.885, 224.625 64.479, 224.625 64.479 C224.625 64.479, 224.409 63.5908, 224.409 63.5908 C224.409 63.5908, 224.22 63.1751, 224.22 63.1751 C224.22 63.1751, 223.774 62.5401, 223.774 62.5401 C223.774 62.5401, 222.864 61.7767, 222.864 61.7767 C222.864 61.7767, 222.153 61.4327, 222.153 61.4327 C222.153 61.4327, 221.155 61.2173, 221.155 61.2173 C221.155 61.2173, 201.929 61.2286, 201.929 61.2286 C201.929 61.2286, 201.369 61.1644, 201.369 61.1644 C201.369 61.1644, 200.678 60.9716, 200.678 60.9716 C200.678 60.9716, 199.763 60.4765, 199.763 60.4765 C199.763 60.4765, 199.264 60.0343, 199.264 60.0343 C199.264 60.0343, 198.675 59.2179, 198.675 59.2179 C198.675 59.2179, 198.418 58.6132, 198.418 58.6132 C198.418 58.6132, 198.27 57.9404, 198.27 57.9404 C198.27 57.9404, 198.221 57.245, 198.221 57.245 C198.221 57.245, 198.244 47.7773, 198.244 47.7773 C198.244 47.7773, 198.72 47.199, 198.72 47.199 C198.72 47.199, 199.106 46.4923, 199.106 46.4923 C199.106 46.4923, 199.347 45.7099, 199.347 45.7099 C199.347 45.7099, 199.431 44.8746, 199.431 44.8746 C199.431 44.8746, 199.347 44.0356, 199.347 44.0356 C199.347 44.0356, 199.106 43.2532, 199.106 43.2532 C199.106 43.2532, 198.72 42.5502, 198.72 42.5502 C198.72 42.5502, 198.214 41.9341, 198.214 41.9341 C198.214 41.9341, 197.597 41.4277, 197.597 41.4277 C197.597 41.4277, 196.891 41.0422, 196.891 41.0422 C196.891 41.0422, 196.112 40.8003, 196.112 40.8003 C196.112 40.8003, 195.273 40.7171, 195.273 40.7171 C195.273 40.7171, 194.438 40.8003, 194.438 40.8003 C194.438 40.8003, 193.655 41.0422, 193.655 41.0422 C193.655 41.0422, 192.949 41.4277, 192.949 41.4277 C192.949 41.4277, 192.336 41.9304, 192.336 41.9304 C192.336 41.9304, 30.1795 41.9228, 30.1795 41.9228 C30.1795 41.9228, 29.5899 41.439, 29.5899 41.439 C29.5899 41.439, 28.8831 41.0573, 28.8831 41.0573 C28.8831 41.0573, 28.1046 40.8154, 28.1046 40.8154 C28.1046 40.8154, 27.2655 40.7285, 27.2655 40.7285 C27.2655 40.7285, 26.4302 40.8154, 26.4302 40.8154 C26.4302 40.8154, 25.6479 41.0573, 25.6479 41.0573 C25.6479 41.0573, 24.9411 41.439, 24.9411 41.439 C24.9411 41.439, 24.325 41.9455, 24.325 41.9455 C24.325 41.9455, 23.8186 42.5615, 23.8186 42.5615 C23.8186 42.5615, 23.4369 43.2683, 23.4369 43.2683 C23.4369 43.2683, 23.195 44.0507, 23.195 44.0507 C23.195 44.0507, 23.108 44.886, 23.108 44.886 C23.108 44.886, 23.195 45.725, 23.195 45.725 C23.195 45.725, 23.4369 46.5036, 23.4369 46.5036 C23.4369 46.5036, 23.8186 47.2104, 23.8186 47.2104 C23.8186 47.2104, 24.3364 47.834, 24.3364 47.834 C24.3364 47.834, 24.3477 165.336, 24.3477 165.336 C24.3477 165.336, 23.8677 165.918, 23.8677 165.918 C23.8677 165.918, 23.4822 166.625, 23.4822 166.625 C23.4822 166.625, 23.2403 167.407, 23.2403 167.407 C23.2403 167.407, 23.1572 168.242, 23.1572 168.242 C23.1572 168.242, 23.2403 169.085, 23.2403 169.085 C23.2403 169.085, 23.4822 169.86, 23.4822 169.86 C23.4822 169.86, 23.8677 170.567, 23.8677 170.567 C23.8677 170.567, 24.3742 171.183, 24.3742 171.183 C24.3742 171.183, 24.9902 171.689, 24.9902 171.689 C24.9902 171.689, 25.697 172.075, 25.697 172.075 C25.697 172.075, 26.4756 172.317, 26.4756 172.317 C26.4756 172.317, 27.3146 172.4, 27.3146 172.4 C27.3146 172.4, 28.1537 172.317, 28.1537 172.317 C28.1537 172.317, 28.9323 172.075, 28.9323 172.075 C28.9323 172.075, 29.6391 171.689, 29.6391 171.689 C29.6391 171.689, 30.2324 171.202, 30.2324 171.202 C30.2324 171.202, 192.363 171.213, 192.363 171.213 C192.363 171.213, 192.949 171.693, 192.949 171.693 C192.949 171.693, 193.655 172.078, 193.655 172.078 C193.655 172.078, 194.434 172.32, 194.434 172.32 C194.434 172.32, 195.273 172.403, 195.273 172.403 C195.273 172.403, 196.112 172.32, 196.112 172.32 Z " stroke="black" stroke-width="1" fill="none" />

<path d="M14.1707 45.9077 C14.6746 45.9077, 15.1786 45.9077, 15.6825 45.9077 C17.8742 45.9077, 19.651 47.6845, 19.651 49.8762 C19.651 49.8762, 19.651 49.8762, 19.651 49.8762 C19.651 52.068, 17.8742 53.8447, 15.6825 53.8447 C15.1786 53.8447, 14.6746 53.8447, 14.1707 53.8447 C11.9789 53.8447, 10.2022 52.068, 10.2022 49.8762 C10.2022 49.8762, 10.2022 49.8762, 10.2022 49.8762 C10.2022 47.6845, 11.9789 45.9077, 14.1707 45.9077 Z " stroke="black" stroke-width="1" fill="none" />

<path d="M14.1707 159.294 C14.6746 159.294, 15.1786 159.294, 15.6825 159.294 C17.8742 159.294, 19.651 161.07, 19.651 163.262 C19.651 163.262, 19.651 163.262, 19.651 163.262 C19.651 165.454, 17.8742 167.231, 15.6825 167.231 C15.1786 167.231, 14.6746 167.231, 14.1707 167.231 C11.9789 167.231, 10.2022 165.454, 10.2022 163.262 C10.2022 163.262, 10.2022 163.262, 10.2022 163.262 C10.2022 161.07, 11.9789 159.294, 14.1707 159.294 Z " stroke="black" stroke-width="1" fill="none" />

<path d="M206.927 45.9077 C207.431 45.9077, 207.934 45.9077, 208.438 45.9077 C210.63 45.9077, 212.407 47.6845, 212.407 49.8762 C212.407 49.8762, 212.407 49.8762, 212.407 49.8762 C212.407 52.068, 210.63 53.8447, 208.438 53.8447 C207.934 53.8447, 207.431 53.8447, 206.927 53.8447 C204.735 53.8447, 202.958 52.068, 202.958 49.8762 C202.958 49.8762, 202.958 49.8762, 202.958 49.8762 C202.958 47.6845, 204.735 45.9077, 206.927 45.9077 Z " stroke="black" stroke-width="1" fill="none" />

<path d="M206.927 159.294 C207.431 159.294, 207.934 159.294, 208.438 159.294 C210.63 159.294, 212.407 161.07, 212.407 163.262 C212.407 163.262, 212.407 163.262, 212.407 163.262 C212.407 165.454, 210.63 167.231, 208.438 167.231 C207.934 167.231, 207.431 167.231, 206.927 167.231 C204.735 167.231, 202.958 165.454, 202.958 163.262 C202.958 163.262, 202.958 163.262, 202.958 163.262 C202.958 161.07, 204.735 159.294, 206.927 159.294 Z " stroke="black" stroke-width="1" fill="none" />

</svg>
