<?xml version="1.0" encoding="UTF-8" standalone="no"?>
<svg  version="1.1" xmlns="http://www.w3.org/2000/svg" width="190.328px" height="96.1897px">
<path d="M11.5565 54.6149 C67.3675 54.6149, 123.178 54.6149, 178.99 54.6149 C185.252 54.6149, 190.328 59.6913, 190.328 65.9534 C190.328 70.9928, 190.328 76.0322, 190.328 81.0716 C190.328 87.3337, 185.252 92.4101, 178.99 92.4101 C123.178 92.4101, 67.3675 92.4101, 11.5565 92.4101 C5.29432 92.4101, 0.217867 87.3337, 0.217867 81.0716 C0.217867 76.0322, 0.217867 70.9928, 0.217867 65.9534 C0.217867 59.6913, 5.29432 54.6149, 11.5565 54.6149 Z " stroke="black" stroke-width="1" fill="none" />

<path d="M18.7376 67.4653 C21.5092 67.4653, 24.2809 67.4653, 27.0525 67.4653 C30.1836 67.4653, 32.7218 70.0035, 32.7218 73.1345 C32.7218 73.3865, 32.7218 73.6385, 32.7218 73.8905 C32.7218 77.0215, 30.1836 79.5597, 27.0525 79.5597 C24.2809 79.5597, 21.5092 79.5597, 18.7376 79.5597 C15.6065 79.5597, 13.0683 77.0215, 13.0683 73.8905 C13.0683 73.6385, 13.0683 73.3865, 13.0683 73.1345 C13.0683 70.0035, 15.6065 67.4653, 18.7376 67.4653 Z " stroke="black" stroke-width="1" fill="none" />

<path d="M163.493 67.4653 C166.265 67.4653, 169.037 67.4653, 171.808 67.4653 C174.939 67.4653, 177.478 70.0035, 177.478 73.1345 C177.478 73.3865, 177.478 73.6385, 177.478 73.8905 C177.478 77.0215, 174.939 79.5597, 171.808 79.5597 C169.037 79.5597, 166.265 79.5597, 163.493 79.5597 C160.362 79.5597, 157.824 77.0215, 157.824 73.8905 C157.824 73.6385, 157.824 73.3865, 157.824 73.1345 C157.824 70.0035, 160.362 67.4653, 163.493 67.4653 Z " stroke="black" stroke-width="1" fill="none" />

<path d="M140.816 50.8353 C140.942 50.8353, 141.068 50.8353, 141.194 50.8353 C143.282 50.8353, 144.974 52.5275, 144.974 54.6149 C144.974 67.2133, 144.974 79.8117, 144.974 92.4101 C144.974 94.4975, 143.282 96.1897, 141.194 96.1897 C141.068 96.1897, 140.942 96.1897, 140.816 96.1897 C138.729 96.1897, 137.037 94.4975, 137.037 92.4101 C137.037 79.8117, 137.037 67.2133, 137.037 54.6149 C137.037 52.5275, 138.729 50.8353, 140.816 50.8353 Z " stroke="black" stroke-width="1" fill="none" />

<path d="M140.598 0 C140.724 0, 140.85 0, 140.976 0 C143.064 0, 144.756 1.69215, 144.756 3.77953 C144.756 16.378, 144.756 28.9764, 144.756 41.5748 C144.756 43.6622, 143.064 45.3543, 140.976 45.3543 C140.85 45.3543, 140.724 45.3543, 140.598 45.3543 C138.511 45.3543, 136.819 43.6622, 136.819 41.5748 C136.819 28.9764, 136.819 16.378, 136.819 3.77953 C136.819 1.69215, 138.511 0, 140.598 0 Z " stroke="black" stroke-width="1" fill="none" />

<path d="M163.276 16.6299 C166.047 16.6299, 168.819 16.6299, 171.591 16.6299 C174.722 16.6299, 177.26 19.1681, 177.26 22.2992 C177.26 22.5512, 177.26 22.8031, 177.26 23.0551 C177.26 26.1862, 174.722 28.7244, 171.591 28.7244 C168.819 28.7244, 166.047 28.7244, 163.276 28.7244 C160.145 28.7244, 157.606 26.1862, 157.606 23.0551 C157.606 22.8031, 157.606 22.5512, 157.606 22.2992 C157.606 19.1681, 160.145 16.6299, 163.276 16.6299 Z " stroke="black" stroke-width="1" fill="none" />

<path d="M18.5197 16.6299 C21.2913 16.6299, 24.063 16.6299, 26.8346 16.6299 C29.9657 16.6299, 32.5039 19.1681, 32.5039 22.2992 C32.5039 22.5512, 32.5039 22.8031, 32.5039 23.0551 C32.5039 26.1862, 29.9657 28.7244, 26.8346 28.7244 C24.063 28.7244, 21.2913 28.7244, 18.5197 28.7244 C15.3886 28.7244, 12.8504 26.1862, 12.8504 23.0551 C12.8504 22.8031, 12.8504 22.5512, 12.8504 22.2992 C12.8504 19.1681, 15.3886 16.6299, 18.5197 16.6299 Z " stroke="black" stroke-width="1" fill="none" />

<path d="M11.3386 3.77953 C67.1496 3.77953, 122.961 3.77953, 178.772 3.77953 C185.034 3.77953, 190.11 8.85598, 190.11 15.1181 C190.11 20.1575, 190.11 25.1969, 190.11 30.2362 C190.11 36.4983, 185.034 41.5748, 178.772 41.5748 C122.961 41.5748, 67.1496 41.5748, 11.3386 41.5748 C5.07646 41.5748, 0 36.4983, 0 30.2362 C0 25.1969, 0 20.1575, 0 15.1181 C0 8.85598, 5.07646 3.77953, 11.3386 3.77953 Z " stroke="black" stroke-width="1" fill="none" />

</svg>
