<?xml version="1.0" encoding="UTF-8" standalone="no"?>
<svg  version="1.1" xmlns="http://www.w3.org/2000/svg" width="241.954px" height="584.648px">
<circle cx="56.7307" cy="257.749" r="13.0394" stroke="black" stroke-width="1" fill="none" />


<circle cx="185.235" cy="257.749" r="13.0394" stroke="black" stroke-width="1" fill="none" />


<circle cx="56.7307" cy="235.071" r="6.04724" stroke="black" stroke-width="1" fill="none" />


<circle cx="185.235" cy="235.071" r="6.04724" stroke="black" stroke-width="1" fill="none" />


<circle cx="28.7622" cy="433.119" r="19.7669" stroke="black" stroke-width="1" fill="none" />


<circle cx="89.2346" cy="433.119" r="19.7669" stroke="black" stroke-width="1" fill="none" />


<circle cx="149.707" cy="433.119" r="19.7669" stroke="black" stroke-width="1" fill="none" />


<circle cx="210.18" cy="433.119" r="19.7669" stroke="black" stroke-width="1" fill="none" />


<circle cx="32.5417" cy="18.9203" r="6.04724" stroke="black" stroke-width="1" fill="none" />


<circle cx="32.5417" cy="374.12" r="6.04724" stroke="black" stroke-width="1" fill="none" />


<circle cx="36.3213" cy="486.032" r="6.04724" stroke="black" stroke-width="1" fill="none" />


<circle cx="202.62" cy="486.032" r="6.04724" stroke="black" stroke-width="1" fill="none" />


<circle cx="202.62" cy="576.741" r="6.04724" stroke="black" stroke-width="1" fill="none" />


<circle cx="36.3213" cy="576.741" r="6.04724" stroke="black" stroke-width="1" fill="none" />


<path d="M81.6756 484.142 C106.872 484.142, 132.069 484.142, 157.266 484.142 C183.358 484.142, 204.51 505.294, 204.51 531.386 C204.51 531.386, 204.51 531.386, 204.51 531.386 C204.51 557.479, 183.358 578.631, 157.266 578.631 C132.069 578.631, 106.872 578.631, 81.6756 578.631 C55.5834 578.631, 34.4315 557.479, 34.4315 531.386 C34.4315 531.386, 34.4315 531.386, 34.4315 531.386 C34.4315 505.294, 55.5834 484.142, 81.6756 484.142 Z " stroke="black" stroke-width="1" fill="none" />

<path d="M241.954 295.106 C241.954 295.106, 241.946 295.106, 241.946 295.106 C241.946 295.106, 241.954 4.26331, 241.954 4.26331 C241.954 4.26331, 241.882 3.22394, 241.882 3.22394 C241.882 3.22394, 241.561 2.20724, 241.561 2.20724 C241.561 2.20724, 240.949 1.28504, 240.949 1.28504 C240.949 1.28504, 240.121 0.582047, 240.121 0.582047 C240.121 0.582047, 239.089 0.147402, 239.089 0.147402 C239.089 0.147402, 238.125 0.0113386, 238.125 0.0113386 C238.125 0.0113386, 237.521 0, 237.521 0 C237.521 0, 4.27087 0.00377953, 4.27087 0.00377953 C4.27087 0.00377953, 3.57921 0.0302362, 3.57921 0.0302362 C3.57921 0.0302362, 2.8989 0.136063, 2.8989 0.136063 C2.8989 0.136063, 2.11276 0.427087, 2.11276 0.427087 C2.11276 0.427087, 1.63276 0.71811, 1.63276 0.71811 C1.63276 0.71811, 1.19811 1.07717, 1.19811 1.07717 C1.19811 1.07717, 0.835276 1.48535, 0.835276 1.48535 C0.835276 1.48535, 0.532913 1.94268, 0.532913 1.94268 C0.532913 1.94268, 0.294803 2.4378, 0.294803 2.4378 C0.294803 2.4378, 0.132283 2.95937, 0.132283 2.95937 C0.132283 2.95937, 0.0226772 3.82488, 0.0226772 3.82488 C0.0226772 3.82488, 0.0113386 4.42961, 0.0113386 4.42961 C0.0113386 4.42961, 0.00377953 295.106, 0.00377953 295.106 C0.00377953 295.106, 0 295.106, 0 295.106 C0 295.106, 1.67845e-15 578.978, 1.67845e-15 578.978 C5.03534e-15 582.109, 2.53823 584.648, 5.66929 584.648 C5.66929 584.648, 236.285 584.648, 236.285 584.648 C239.416 584.648, 241.954 582.109, 241.954 578.978 C241.954 578.978, 241.954 295.106, 241.954 295.106 Z " stroke="black" stroke-width="1" fill="none" />

<path d="M196.139 172.35 C196.139 172.35, 196.921 172.108, 196.921 172.108 C196.921 172.108, 197.628 171.727, 197.628 171.727 C197.628 171.727, 198.24 171.216, 198.24 171.216 C198.24 171.216, 198.75 170.6, 198.75 170.6 C198.75 170.6, 199.132 169.897, 199.132 169.897 C199.132 169.897, 199.374 169.115, 199.374 169.115 C199.374 169.115, 199.461 168.276, 199.461 168.276 C199.461 168.276, 199.374 167.441, 199.374 167.441 C199.374 167.441, 199.132 166.658, 199.132 166.658 C199.132 166.658, 198.75 165.951, 198.75 165.951 C198.75 165.951, 198.244 165.343, 198.244 165.343 C198.244 165.343, 198.217 155.962, 198.217 155.962 C198.217 155.962, 198.259 155.301, 198.259 155.301 C198.259 155.301, 198.384 154.651, 198.384 154.651 C198.384 154.651, 198.663 153.963, 198.663 153.963 C198.663 153.963, 199.083 153.332, 199.083 153.332 C199.083 153.332, 199.616 152.787, 199.616 152.787 C199.616 152.787, 200.232 152.368, 200.232 152.368 C200.232 152.368, 200.621 152.198, 200.621 152.198 C200.621 152.198, 201.029 152.073, 201.029 152.073 C201.029 152.073, 201.883 151.945, 201.883 151.945 C201.883 151.945, 220.418 151.956, 220.418 151.956 C220.418 151.956, 221.284 151.914, 221.284 151.914 C221.284 151.914, 222.384 151.608, 222.384 151.608 C222.384 151.608, 222.894 151.347, 222.894 151.347 C222.894 151.347, 223.359 151.019, 223.359 151.019 C223.359 151.019, 223.763 150.626, 223.763 150.626 C223.763 150.626, 224.1 150.168, 224.1 150.168 C224.1 150.168, 224.368 149.662, 224.368 149.662 C224.368 149.662, 224.561 149.125, 224.561 149.125 C224.561 149.125, 224.67 148.539, 224.67 148.539 C224.67 148.539, 224.716 147.598, 224.716 147.598 C224.716 147.598, 224.7 65.8809, 224.7 65.8809 C224.7 65.8809, 224.629 64.475, 224.629 64.475 C224.629 64.475, 224.409 63.5868, 224.409 63.5868 C224.409 63.5868, 224.22 63.171, 224.22 63.171 C224.22 63.171, 223.774 62.5398, 223.774 62.5398 C223.774 62.5398, 223.499 62.2564, 223.499 62.2564 C223.499 62.2564, 222.864 61.7726, 222.864 61.7726 C222.864 61.7726, 222.157 61.4287, 222.157 61.4287 C222.157 61.4287, 221.155 61.217, 221.155 61.217 C221.155 61.217, 201.929 61.2283, 201.929 61.2283 C201.929 61.2283, 201.369 61.1603, 201.369 61.1603 C201.369 61.1603, 200.682 60.9713, 200.682 60.9713 C200.682 60.9713, 199.763 60.4762, 199.763 60.4762 C199.763 60.4762, 199.268 60.034, 199.268 60.034 C199.268 60.034, 198.678 59.2176, 198.678 59.2176 C198.678 59.2176, 198.421 58.6091, 198.421 58.6091 C198.421 58.6091, 198.274 57.9364, 198.274 57.9364 C198.274 57.9364, 198.221 57.2447, 198.221 57.2447 C198.221 57.2447, 198.244 47.811, 198.244 47.811 C198.244 47.811, 198.739 47.2063, 198.739 47.2063 C198.739 47.2063, 199.124 46.4995, 199.124 46.4995 C199.124 46.4995, 199.366 45.7209, 199.366 45.7209 C199.366 45.7209, 199.449 44.8819, 199.449 44.8819 C199.449 44.8819, 199.366 44.0428, 199.366 44.0428 C199.366 44.0428, 199.124 43.2643, 199.124 43.2643 C199.124 43.2643, 198.739 42.5575, 198.739 42.5575 C198.739 42.5575, 198.232 41.9414, 198.232 41.9414 C198.232 41.9414, 197.616 41.435, 197.616 41.435 C197.616 41.435, 196.91 41.0494, 196.91 41.0494 C196.91 41.0494, 196.131 40.8076, 196.131 40.8076 C196.131 40.8076, 195.292 40.7244, 195.292 40.7244 C195.292 40.7244, 194.453 40.8076, 194.453 40.8076 C194.453 40.8076, 193.674 41.0494, 193.674 41.0494 C193.674 41.0494, 192.968 41.435, 192.968 41.435 C192.968 41.435, 192.367 41.9301, 192.367 41.9301 C192.367 41.9301, 30.2287 41.9225, 30.2287 41.9225 C30.2287 41.9225, 29.605 41.4009, 29.605 41.4009 C29.605 41.4009, 28.8983 41.0154, 28.8983 41.0154 C28.8983 41.0154, 28.1159 40.7735, 28.1159 40.7735 C28.1159 40.7735, 27.2806 40.6904, 27.2806 40.6904 C27.2806 40.6904, 26.4416 40.7735, 26.4416 40.7735 C26.4416 40.7735, 25.6592 41.0154, 25.6592 41.0154 C25.6592 41.0154, 24.9524 41.4009, 24.9524 41.4009 C24.9524 41.4009, 24.3402 41.9074, 24.3402 41.9074 C24.3402 41.9074, 23.8299 42.5235, 23.8299 42.5235 C23.8299 42.5235, 23.4482 43.2302, 23.4482 43.2302 C23.4482 43.2302, 23.2063 44.0088, 23.2063 44.0088 C23.2063 44.0088, 23.1231 44.8479, 23.1231 44.8479 C23.1231 44.8479, 23.2063 45.6831, 23.2063 45.6831 C23.2063 45.6831, 23.4482 46.4655, 23.4482 46.4655 C23.4482 46.4655, 23.8299 47.1723, 23.8299 47.1723 C23.8299 47.1723, 24.3402 47.7883, 24.3402 47.7883 C24.3402 47.7883, 24.3515 165.267, 24.3515 165.267 C24.3515 165.267, 23.7883 165.929, 23.7883 165.929 C23.7883 165.929, 23.4066 166.636, 23.4066 166.636 C23.4066 166.636, 23.1647 167.414, 23.1647 167.414 C23.1647 167.414, 23.0778 168.253, 23.0778 168.253 C23.0778 168.253, 23.1647 169.092, 23.1647 169.092 C23.1647 169.092, 23.4066 169.871, 23.4066 169.871 C23.4066 169.871, 23.7883 170.578, 23.7883 170.578 C23.7883 170.578, 24.2986 171.194, 24.2986 171.194 C24.2986 171.194, 24.9109 171.7, 24.9109 171.7 C24.9109 171.7, 25.6176 172.086, 25.6176 172.086 C25.6176 172.086, 26.4 172.328, 26.4 172.328 C26.4 172.328, 27.2353 172.411, 27.2353 172.411 C27.2353 172.411, 28.0743 172.328, 28.0743 172.328 C28.0743 172.328, 28.8567 172.086, 28.8567 172.086 C28.8567 172.086, 29.5597 171.7, 29.5597 171.7 C29.5597 171.7, 30.172 171.197, 30.172 171.197 C30.172 171.197, 192.359 171.213, 192.359 171.213 C192.359 171.213, 192.363 171.216, 192.363 171.216 C192.363 171.216, 192.979 171.727, 192.979 171.727 C192.979 171.727, 193.682 172.108, 193.682 172.108 C193.682 172.108, 194.464 172.35, 194.464 172.35 C194.464 172.35, 195.303 172.433, 195.303 172.433 C195.303 172.433, 196.139 172.35, 196.139 172.35 Z " stroke="black" stroke-width="1" fill="none" />

<path d="M14.1732 45.9061 C14.6772 45.9061, 15.1811 45.9061, 15.685 45.9061 C17.8768 45.9061, 19.6535 47.6829, 19.6535 49.8746 C19.6535 49.8746, 19.6535 49.8746, 19.6535 49.8746 C19.6535 52.0664, 17.8768 53.8431, 15.685 53.8431 C15.1811 53.8431, 14.6772 53.8431, 14.1732 53.8431 C11.9815 53.8431, 10.2047 52.0664, 10.2047 49.8746 C10.2047 49.8746, 10.2047 49.8746, 10.2047 49.8746 C10.2047 47.6829, 11.9815 45.9061, 14.1732 45.9061 Z " stroke="black" stroke-width="1" fill="none" />

<path d="M14.1732 159.292 C14.6772 159.292, 15.1811 159.292, 15.685 159.292 C17.8768 159.292, 19.6535 161.069, 19.6535 163.26 C19.6535 163.26, 19.6535 163.26, 19.6535 163.26 C19.6535 165.452, 17.8768 167.229, 15.685 167.229 C15.1811 167.229, 14.6772 167.229, 14.1732 167.229 C11.9815 167.229, 10.2047 165.452, 10.2047 163.26 C10.2047 163.26, 10.2047 163.26, 10.2047 163.26 C10.2047 161.069, 11.9815 159.292, 14.1732 159.292 Z " stroke="black" stroke-width="1" fill="none" />

<path d="M206.929 45.9061 C207.433 45.9061, 207.937 45.9061, 208.441 45.9061 C210.633 45.9061, 212.409 47.6829, 212.409 49.8746 C212.409 49.8746, 212.409 49.8746, 212.409 49.8746 C212.409 52.0664, 210.633 53.8431, 208.441 53.8431 C207.937 53.8431, 207.433 53.8431, 206.929 53.8431 C204.737 53.8431, 202.961 52.0664, 202.961 49.8746 C202.961 49.8746, 202.961 49.8746, 202.961 49.8746 C202.961 47.6829, 204.737 45.9061, 206.929 45.9061 Z " stroke="black" stroke-width="1" fill="none" />

<path d="M206.929 159.292 C207.433 159.292, 207.937 159.292, 208.441 159.292 C210.633 159.292, 212.409 161.069, 212.409 163.26 C212.409 163.26, 212.409 163.26, 212.409 163.26 C212.409 165.452, 210.633 167.229, 208.441 167.229 C207.937 167.229, 207.433 167.229, 206.929 167.229 C204.737 167.229, 202.961 165.452, 202.961 163.26 C202.961 163.26, 202.961 163.26, 202.961 163.26 C202.961 161.069, 204.737 159.292, 206.929 159.292 Z " stroke="black" stroke-width="1" fill="none" />

</svg>
