<?xml version="1.0" encoding="UTF-8" standalone="no"?>
<svg  version="1.1" xmlns="http://www.w3.org/2000/svg" width="267.591px" height="670.488px">
<path d="M24.0378 651.024 C26.8094 651.024, 29.5811 651.024, 32.3528 651.024 C35.4838 651.024, 38.022 653.562, 38.022 656.693 C38.022 656.945, 38.022 657.197, 38.022 657.449 C38.022 660.58, 35.4838 663.118, 32.3528 663.118 C29.5811 663.118, 26.8094 663.118, 24.0378 663.118 C20.9067 663.118, 18.3685 660.58, 18.3685 657.449 C18.3685 657.197, 18.3685 656.945, 18.3685 656.693 C18.3685 653.562, 20.9067 651.024, 24.0378 651.024 Z " stroke="black" stroke-width="1" fill="none" />

<path d="M235.238 651.024 C238.009 651.024, 240.781 651.024, 243.553 651.024 C246.684 651.024, 249.222 653.562, 249.222 656.693 C249.222 656.945, 249.222 657.197, 249.222 657.449 C249.222 660.58, 246.684 663.118, 243.553 663.118 C240.781 663.118, 238.009 663.118, 235.238 663.118 C232.107 663.118, 229.569 660.58, 229.569 657.449 C229.569 657.197, 229.569 656.945, 229.569 656.693 C229.569 653.562, 232.107 651.024, 235.238 651.024 Z " stroke="black" stroke-width="1" fill="none" />

<path d="M24.0378 7.37008 C26.8094 7.37008, 29.5811 7.37008, 32.3528 7.37008 C35.4838 7.37008, 38.022 9.90831, 38.022 13.0394 C38.022 13.2913, 38.022 13.5433, 38.022 13.7953 C38.022 16.9263, 35.4838 19.4646, 32.3528 19.4646 C29.5811 19.4646, 26.8094 19.4646, 24.0378 19.4646 C20.9067 19.4646, 18.3685 16.9263, 18.3685 13.7953 C18.3685 13.5433, 18.3685 13.2913, 18.3685 13.0394 C18.3685 9.90831, 20.9067 7.37008, 24.0378 7.37008 Z " stroke="black" stroke-width="1" fill="none" />

<path d="M235.238 7.37008 C238.009 7.37008, 240.781 7.37008, 243.553 7.37008 C246.684 7.37008, 249.222 9.90831, 249.222 13.0394 C249.222 13.2913, 249.222 13.5433, 249.222 13.7953 C249.222 16.9263, 246.684 19.4646, 243.553 19.4646 C240.781 19.4646, 238.009 19.4646, 235.238 19.4646 C232.107 19.4646, 229.569 16.9263, 229.569 13.7953 C229.569 13.5433, 229.569 13.2913, 229.569 13.0394 C229.569 9.90831, 232.107 7.37008, 235.238 7.37008 Z " stroke="black" stroke-width="1" fill="none" />

<path d="M267.591 0 L267.591 670.488 L0 670.488 L0 0 L267.591 0 Z " stroke="black" stroke-width="1" fill="none" />

<path d="M70.2501 97.1036 C112.614 97.1036, 154.977 97.1036, 197.34 97.1036 C199.428 97.1036, 201.12 98.7958, 201.12 100.883 C201.12 134.415, 201.12 167.947, 201.12 201.479 C201.12 203.566, 199.428 205.259, 197.34 205.259 C154.977 205.259, 112.614 205.259, 70.2501 205.259 C68.1627 205.259, 66.4706 203.566, 66.4706 201.479 C66.4706 167.947, 66.4706 134.415, 66.4706 100.883 C66.4706 98.7958, 68.1627 97.1036, 70.2501 97.1036 Z " stroke="black" stroke-width="1" fill="none" />

<circle cx="69.5433" cy="302.362" r="13.0394" stroke="black" stroke-width="1" fill="none" />


<circle cx="198.047" cy="302.362" r="13.0394" stroke="black" stroke-width="1" fill="none" />


<circle cx="41.5748" cy="477.732" r="15.1181" stroke="black" stroke-width="1" fill="none" />


<circle cx="102.047" cy="477.732" r="15.1181" stroke="black" stroke-width="1" fill="none" />


<circle cx="162.52" cy="477.732" r="15.1181" stroke="black" stroke-width="1" fill="none" />


<circle cx="222.992" cy="477.732" r="15.1181" stroke="black" stroke-width="1" fill="none" />


<circle cx="74.4945" cy="619.087" r="4.15748" stroke="black" stroke-width="1" fill="none" />


<circle cx="97.5874" cy="619.087" r="4.15748" stroke="black" stroke-width="1" fill="none" />


<circle cx="120.68" cy="619.087" r="4.15748" stroke="black" stroke-width="1" fill="none" />


<circle cx="143.773" cy="619.087" r="4.15748" stroke="black" stroke-width="1" fill="none" />


<circle cx="166.866" cy="619.087" r="4.15748" stroke="black" stroke-width="1" fill="none" />


<circle cx="189.959" cy="619.087" r="4.15748" stroke="black" stroke-width="1" fill="none" />


<circle cx="51.4016" cy="597.543" r="4.15748" stroke="black" stroke-width="1" fill="none" />


<circle cx="74.4945" cy="597.543" r="4.15748" stroke="black" stroke-width="1" fill="none" />


<circle cx="97.5874" cy="597.543" r="4.15748" stroke="black" stroke-width="1" fill="none" />


<circle cx="120.68" cy="597.543" r="4.15748" stroke="black" stroke-width="1" fill="none" />


<circle cx="143.773" cy="597.543" r="4.15748" stroke="black" stroke-width="1" fill="none" />


<circle cx="166.866" cy="597.543" r="4.15748" stroke="black" stroke-width="1" fill="none" />


<circle cx="189.959" cy="597.543" r="4.15748" stroke="black" stroke-width="1" fill="none" />


<circle cx="213.052" cy="597.543" r="4.15748" stroke="black" stroke-width="1" fill="none" />


<circle cx="51.4016" cy="576" r="4.15748" stroke="black" stroke-width="1" fill="none" />


<circle cx="74.4945" cy="576" r="4.15748" stroke="black" stroke-width="1" fill="none" />


<circle cx="97.5874" cy="576" r="4.15748" stroke="black" stroke-width="1" fill="none" />


<circle cx="120.68" cy="576" r="4.15748" stroke="black" stroke-width="1" fill="none" />


<circle cx="143.773" cy="576" r="4.15748" stroke="black" stroke-width="1" fill="none" />


<circle cx="166.866" cy="576" r="4.15748" stroke="black" stroke-width="1" fill="none" />


<circle cx="189.959" cy="576" r="4.15748" stroke="black" stroke-width="1" fill="none" />


<circle cx="213.052" cy="576" r="4.15748" stroke="black" stroke-width="1" fill="none" />


<circle cx="51.4016" cy="554.457" r="4.15748" stroke="black" stroke-width="1" fill="none" />


<circle cx="74.4945" cy="554.457" r="4.15748" stroke="black" stroke-width="1" fill="none" />


<circle cx="97.5874" cy="554.457" r="4.15748" stroke="black" stroke-width="1" fill="none" />


<circle cx="120.68" cy="554.457" r="4.15748" stroke="black" stroke-width="1" fill="none" />


<circle cx="143.773" cy="554.457" r="4.15748" stroke="black" stroke-width="1" fill="none" />


<circle cx="166.866" cy="554.457" r="4.15748" stroke="black" stroke-width="1" fill="none" />


<circle cx="189.959" cy="554.457" r="4.15748" stroke="black" stroke-width="1" fill="none" />


<circle cx="213.052" cy="554.457" r="4.15748" stroke="black" stroke-width="1" fill="none" />


<circle cx="74.4945" cy="532.913" r="4.15748" stroke="black" stroke-width="1" fill="none" />


<circle cx="97.5874" cy="532.913" r="4.15748" stroke="black" stroke-width="1" fill="none" />


<circle cx="120.68" cy="532.913" r="4.15748" stroke="black" stroke-width="1" fill="none" />


<circle cx="143.773" cy="532.913" r="4.15748" stroke="black" stroke-width="1" fill="none" />


<circle cx="166.866" cy="532.913" r="4.15748" stroke="black" stroke-width="1" fill="none" />


<circle cx="189.959" cy="532.913" r="4.15748" stroke="black" stroke-width="1" fill="none" />


</svg>
