<?xml version="1.0" encoding="UTF-8" standalone="no"?>
<!-- Created with Inkscape (http://www.inkscape.org/) -->

<svg
   width="297mm"
   height="210mm"
   viewBox="0 0 297 210"
   version="1.1"
   id="svg5"
   inkscape:version="1.1 (c68e22c387, 2021-05-23)"
   sodipodi:docname="front1.svg"
   xmlns:inkscape="http://www.inkscape.org/namespaces/inkscape"
   xmlns:sodipodi="http://sodipodi.sourceforge.net/DTD/sodipodi-0.dtd"
   xmlns="http://www.w3.org/2000/svg"
   xmlns:svg="http://www.w3.org/2000/svg">
  <sodipodi:namedview
     id="namedview7"
     pagecolor="#ffffff"
     bordercolor="#666666"
     borderopacity="1.0"
     inkscape:pageshadow="2"
     inkscape:pageopacity="0.0"
     inkscape:pagecheckerboard="0"
     inkscape:document-units="mm"
     showgrid="false"
     inkscape:snap-global="true"
     inkscape:zoom="1.3651485"
     inkscape:cx="561.47738"
     inkscape:cy="396.66014"
     inkscape:window-width="1920"
     inkscape:window-height="1177"
     inkscape:window-x="1912"
     inkscape:window-y="-8"
     inkscape:window-maximized="1"
     inkscape:current-layer="layer1" />
  <defs
     id="defs2" />
  <g
     inkscape:label="Laag 1"
     inkscape:groupmode="layer"
     id="layer1">
    <path
       d="m 10.260043,188.54999 c 0.73332,0 1.466665,0 2.200011,0 0.82841,0 1.499976,0.67151 1.499976,1.49992 0,0.0667 0,0.13335 0,0.20003 0,0.82841 -0.671566,1.50019 -1.499976,1.50019 -0.733346,0 -1.466691,0 -2.200011,0 -0.8284364,0 -1.5000018,-0.67178 -1.5000018,-1.50019 0,-0.0667 0,-0.13335 0,-0.20003 0,-0.82841 0.6715654,-1.49992 1.5000018,-1.49992 z"
       stroke="#000000"
       stroke-width="0.264583"
       fill="none"
       id="path1072" />
    <path
       d="m 66.140096,188.54999 c 0.73316,0 1.466585,0 2.20001,0 0.82841,0 1.499923,0.67151 1.499923,1.49992 0,0.0667 0,0.13335 0,0.20003 0,0.82841 -0.671513,1.50019 -1.499923,1.50019 -0.733425,0 -1.46685,0 -2.20001,0 -0.828411,0 -1.499923,-0.67178 -1.499923,-1.50019 0,-0.0667 0,-0.13335 0,-0.20003 0,-0.82841 0.671512,-1.49992 1.499923,-1.49992 z"
       stroke="#000000"
       stroke-width="0.264583"
       fill="none"
       id="path1074" />
    <path
       d="m 10.260043,18.250031 c 0.73332,0 1.466665,0 2.200011,0 0.82841,0 1.499976,0.671566 1.499976,1.500003 0,0.06668 0,0.133323 0,0.199998 0,0.828437 -0.671566,1.500002 -1.499976,1.500002 -0.733346,0 -1.466691,0 -2.200011,0 -0.8284364,0 -1.5000018,-0.671565 -1.5000018,-1.500002 0,-0.06668 0,-0.133323 0,-0.199998 0,-0.828437 0.6715654,-1.500003 1.5000018,-1.500003 z"
       stroke="#000000"
       stroke-width="0.264583"
       fill="none"
       id="path1076" />
    <path
       d="m 66.140096,18.250031 c 0.73316,0 1.466585,0 2.20001,0 0.82841,0 1.499923,0.671566 1.499923,1.500003 0,0.06668 0,0.133323 0,0.199998 0,0.828437 -0.671513,1.500002 -1.499923,1.500002 -0.733425,0 -1.46685,0 -2.20001,0 -0.828411,0 -1.499923,-0.671565 -1.499923,-1.500002 0,-0.06668 0,-0.133323 0,-0.199998 0,-0.828437 0.671512,-1.500003 1.499923,-1.500003 z"
       stroke="#000000"
       stroke-width="0.264583"
       fill="none"
       id="path1078" />
    <path
       d="M 74.70016,16.300034 V 193.70011 H 3.9000423 V 16.300034 Z"
       stroke="#000000"
       stroke-width="0.264583"
       fill="none"
       id="path1080" />
    <path
       d="m 22.487048,41.991993 c 11.208781,0 22.417325,0 33.625869,0 0.55245,0 1.000125,0.447675 1.000125,1.000125 0,8.872008 0,17.744017 0,26.616025 0,0.552185 -0.447675,0.99986 -1.000125,0.99986 -11.208544,0 -22.417088,0 -33.625869,0 -0.552292,0 -0.999993,-0.447675 -0.999993,-0.99986 0,-8.872008 0,-17.744017 0,-26.616025 0,-0.55245 0.447701,-1.000125 0.999993,-1.000125 z"
       stroke="#000000"
       stroke-width="0.264583"
       fill="none"
       id="path1082" />
    <circle
       cx="22.300039"
       cy="96.300102"
       r="3.4500079"
       stroke="#000000"
       stroke-width="0.264583"
       fill="none"
       id="circle1084" />
    <circle
       cx="56.299976"
       cy="96.300102"
       r="3.4500079"
       stroke="#000000"
       stroke-width="0.264583"
       fill="none"
       id="circle1086" />
    <circle
       cx="22.300039"
       cy="90.300148"
       r="1.5999988"
       stroke="#000000"
       stroke-width="0.264583"
       fill="none"
       id="circle1088" />
    <circle
       cx="56.299976"
       cy="90.300148"
       r="1.5999988"
       stroke="#000000"
       stroke-width="0.264583"
       fill="none"
       id="circle1090" />
    <circle
       cx="14.400032"
       cy="141.20015"
       r="1.7499992"
       stroke="#000000"
       stroke-width="0.264583"
       fill="none"
       id="circle1092" />
    <circle
       cx="33.400024"
       cy="166.2001"
       r="1.7499992"
       stroke="#000000"
       stroke-width="0.264583"
       fill="none"
       id="circle1094" />
    <circle
       cx="44.400078"
       cy="141.20015"
       r="1.7499992"
       stroke="#000000"
       stroke-width="0.264583"
       fill="none"
       id="circle1096" />
    <circle
       cx="63.40007"
       cy="166.2001"
       r="1.7499992"
       stroke="#000000"
       stroke-width="0.264583"
       fill="none"
       id="circle1098" />
    <circle
       cx="23.900055"
       cy="153.70013"
       r="11.999992"
       stroke="#000000"
       stroke-width="0.264583"
       fill="none"
       id="circle1100" />
    <circle
       cx="53.89994"
       cy="153.70013"
       r="11.999992"
       stroke="#000000"
       stroke-width="0.264583"
       fill="none"
       id="circle1102" />
    <path
       d="M 75.700021,15.300033 V 194.69997 H 2.9000417 V 15.300033 Z"
       stroke="#000000"
       stroke-width="0.264583"
       fill="none"
       id="path1104" />
    <path
       d="m 83.060022,188.54999 c 0.733319,0 1.466665,0 2.200011,0 0.82841,0 1.499975,0.67151 1.499975,1.49992 0,0.0667 0,0.13335 0,0.20003 0,0.82841 -0.671565,1.50019 -1.499975,1.50019 -0.733346,0 -1.466692,0 -2.200011,0 -0.828437,0 -1.500002,-0.67178 -1.500002,-1.50019 0,-0.0667 0,-0.13335 0,-0.20003 0,-0.82841 0.671565,-1.49992 1.500002,-1.49992 z"
       stroke="#000000"
       stroke-width="0.264583"
       fill="none"
       id="path1159" />
    <path
       d="m 138.94007,188.54999 c 0.73316,0 1.46659,0 2.20001,0 0.82842,0 1.49993,0.67151 1.49993,1.49992 0,0.0667 0,0.13335 0,0.20003 0,0.82841 -0.67151,1.50019 -1.49993,1.50019 -0.73342,0 -1.46685,0 -2.20001,0 -0.82841,0 -1.49992,-0.67178 -1.49992,-1.50019 0,-0.0667 0,-0.13335 0,-0.20003 0,-0.82841 0.67151,-1.49992 1.49992,-1.49992 z"
       stroke="#000000"
       stroke-width="0.264583"
       fill="none"
       id="path1161" />
    <path
       d="m 83.060022,18.250031 c 0.733319,0 1.466665,0 2.200011,0 0.82841,0 1.499975,0.671566 1.499975,1.500003 0,0.06668 0,0.133323 0,0.199998 0,0.828437 -0.671565,1.500002 -1.499975,1.500002 -0.733346,0 -1.466692,0 -2.200011,0 -0.828437,0 -1.500002,-0.671565 -1.500002,-1.500002 0,-0.06668 0,-0.133323 0,-0.199998 0,-0.828437 0.671565,-1.500003 1.500002,-1.500003 z"
       stroke="#000000"
       stroke-width="0.264583"
       fill="none"
       id="path1163" />
    <path
       d="m 138.94007,18.250031 c 0.73316,0 1.46659,0 2.20001,0 0.82842,0 1.49993,0.671566 1.49993,1.500003 0,0.06668 0,0.133323 0,0.199998 0,0.828437 -0.67151,1.500002 -1.49993,1.500002 -0.73342,0 -1.46685,0 -2.20001,0 -0.82841,0 -1.49992,-0.671565 -1.49992,-1.500002 0,-0.06668 0,-0.133323 0,-0.199998 0,-0.828437 0.67151,-1.500003 1.49992,-1.500003 z"
       stroke="#000000"
       stroke-width="0.264583"
       fill="none"
       id="path1165" />
    <path
       d="M 147.50014,16.300034 V 193.70011 H 76.700021 V 16.300034 Z"
       stroke="#000000"
       stroke-width="0.264583"
       fill="none"
       id="path1167" />
    <path
       d="m 95.287026,41.991993 c 11.208784,0 22.417324,0 33.625874,0 0.55245,0 1.00012,0.447675 1.00012,1.000125 0,8.872008 0,17.744017 0,26.616025 0,0.552185 -0.44767,0.99986 -1.00012,0.99986 -11.20855,0 -22.41709,0 -33.625874,0 -0.552291,0 -0.999992,-0.447675 -0.999992,-0.99986 0,-8.872008 0,-17.744017 0,-26.616025 0,-0.55245 0.447701,-1.000125 0.999992,-1.000125 z"
       stroke="#000000"
       stroke-width="0.264583"
       fill="none"
       id="path1169" />
    <circle
       cx="129.09996"
       cy="96.300102"
       r="3.4500079"
       stroke="#000000"
       stroke-width="0.264583"
       fill="none"
       id="circle1171" />
    <circle
       cx="129.09996"
       cy="90.300148"
       r="1.5999988"
       stroke="#000000"
       stroke-width="0.264583"
       fill="none"
       id="circle1173" />
    <circle
       cx="96.700035"
       cy="153.70013"
       r="3.9999974"
       stroke="#000000"
       stroke-width="0.264583"
       fill="none"
       id="circle1175" />
    <circle
       cx="126.69992"
       cy="153.70013"
       r="3.9999974"
       stroke="#000000"
       stroke-width="0.264583"
       fill="none"
       id="circle1177" />
    <path
       d="M 148.5,15.300033 V 194.69997 H 75.70002 V 15.300033 Z"
       stroke="#000000"
       stroke-width="0.264583"
       fill="none"
       id="path1179" />
    <path
       d="m 155.86,188.54999 c 0.73332,0 1.46667,0 2.20001,0 0.82841,0 1.49998,0.67151 1.49998,1.49992 0,0.0667 0,0.13335 0,0.20003 0,0.82841 -0.67157,1.50019 -1.49998,1.50019 -0.73334,0 -1.46669,0 -2.20001,0 -0.82844,0 -1.5,-0.67178 -1.5,-1.50019 0,-0.0667 0,-0.13335 0,-0.20003 0,-0.82841 0.67156,-1.49992 1.5,-1.49992 z"
       stroke="#000000"
       stroke-width="0.264583"
       fill="none"
       id="path1308" />
    <path
       d="m 211.74005,188.54999 c 0.73316,0 1.46659,0 2.20001,0 0.82841,0 1.49993,0.67151 1.49993,1.49992 0,0.0667 0,0.13335 0,0.20003 0,0.82841 -0.67152,1.50019 -1.49993,1.50019 -0.73342,0 -1.46685,0 -2.20001,0 -0.82841,0 -1.49992,-0.67178 -1.49992,-1.50019 0,-0.0667 0,-0.13335 0,-0.20003 0,-0.82841 0.67151,-1.49992 1.49992,-1.49992 z"
       stroke="#000000"
       stroke-width="0.264583"
       fill="none"
       id="path1310" />
    <path
       d="m 155.86,18.250031 c 0.73332,0 1.46667,0 2.20001,0 0.82841,0 1.49998,0.671566 1.49998,1.500003 0,0.06668 0,0.133323 0,0.199998 0,0.828437 -0.67157,1.500002 -1.49998,1.500002 -0.73334,0 -1.46669,0 -2.20001,0 -0.82844,0 -1.5,-0.671565 -1.5,-1.500002 0,-0.06668 0,-0.133323 0,-0.199998 0,-0.828437 0.67156,-1.500003 1.5,-1.500003 z"
       stroke="#000000"
       stroke-width="0.264583"
       fill="none"
       id="path1312" />
    <path
       d="m 211.74005,18.250031 c 0.73316,0 1.46659,0 2.20001,0 0.82841,0 1.49993,0.671566 1.49993,1.500003 0,0.06668 0,0.133323 0,0.199998 0,0.828437 -0.67152,1.500002 -1.49993,1.500002 -0.73342,0 -1.46685,0 -2.20001,0 -0.82841,0 -1.49992,-0.671565 -1.49992,-1.500002 0,-0.06668 0,-0.133323 0,-0.199998 0,-0.828437 0.67151,-1.500003 1.49992,-1.500003 z"
       stroke="#000000"
       stroke-width="0.264583"
       fill="none"
       id="path1314" />
    <path
       d="M 220.30012,16.300034 V 193.70011 H 149.5 V 16.300034 Z"
       stroke="#000000"
       stroke-width="0.264583"
       fill="none"
       id="path1316" />
    <path
       d="m 168.08701,41.991993 c 11.20878,0 22.41732,0 33.62586,0 0.55245,0 1.00013,0.447675 1.00013,1.000125 0,8.872008 0,17.744017 0,26.616025 0,0.552185 -0.44768,0.99986 -1.00013,0.99986 -11.20854,0 -22.41708,0 -33.62586,0 -0.5523,0 -1,-0.447675 -1,-0.99986 0,-8.872008 0,-17.744017 0,-26.616025 0,-0.55245 0.4477,-1.000125 1,-1.000125 z"
       stroke="#000000"
       stroke-width="0.264583"
       fill="none"
       id="path1318" />
    <circle
       cx="167.89999"
       cy="96.300102"
       r="3.4500079"
       stroke="#000000"
       stroke-width="0.264583"
       fill="none"
       id="circle1320" />
    <circle
       cx="201.89993"
       cy="96.300102"
       r="3.4500079"
       stroke="#000000"
       stroke-width="0.264583"
       fill="none"
       id="circle1322" />
    <circle
       cx="167.89999"
       cy="90.300148"
       r="1.5999988"
       stroke="#000000"
       stroke-width="0.264583"
       fill="none"
       id="circle1324" />
    <circle
       cx="201.89993"
       cy="90.300148"
       r="1.5999988"
       stroke="#000000"
       stroke-width="0.264583"
       fill="none"
       id="circle1326" />
    <circle
       cx="160.5"
       cy="142.70007"
       r="3.9999974"
       stroke="#000000"
       stroke-width="0.264583"
       fill="none"
       id="circle1328" />
    <circle
       cx="176.49994"
       cy="142.70007"
       r="3.9999974"
       stroke="#000000"
       stroke-width="0.264583"
       fill="none"
       id="circle1330" />
    <circle
       cx="192.50008"
       cy="142.70007"
       r="3.9999974"
       stroke="#000000"
       stroke-width="0.264583"
       fill="none"
       id="circle1332" />
    <circle
       cx="208.49997"
       cy="142.70007"
       r="3.9999974"
       stroke="#000000"
       stroke-width="0.264583"
       fill="none"
       id="circle1334" />
    <circle
       cx="169.21001"
       cy="180.10001"
       r="1.0999998"
       stroke="#000000"
       stroke-width="0.264583"
       fill="none"
       id="circle1336" />
    <circle
       cx="175.32001"
       cy="180.10001"
       r="1.0999998"
       stroke="#000000"
       stroke-width="0.264583"
       fill="none"
       id="circle1338" />
    <circle
       cx="181.42992"
       cy="180.10001"
       r="1.0999998"
       stroke="#000000"
       stroke-width="0.264583"
       fill="none"
       id="circle1340" />
    <circle
       cx="187.53993"
       cy="180.10001"
       r="1.0999998"
       stroke="#000000"
       stroke-width="0.264583"
       fill="none"
       id="circle1342" />
    <circle
       cx="193.64996"
       cy="180.10001"
       r="1.0999998"
       stroke="#000000"
       stroke-width="0.264583"
       fill="none"
       id="circle1344" />
    <circle
       cx="199.75998"
       cy="180.10001"
       r="1.0999998"
       stroke="#000000"
       stroke-width="0.264583"
       fill="none"
       id="circle1346" />
    <circle
       cx="163.10001"
       cy="174.40007"
       r="1.0999998"
       stroke="#000000"
       stroke-width="0.264583"
       fill="none"
       id="circle1348" />
    <circle
       cx="169.21001"
       cy="174.40007"
       r="1.0999998"
       stroke="#000000"
       stroke-width="0.264583"
       fill="none"
       id="circle1350" />
    <circle
       cx="175.32001"
       cy="174.40007"
       r="1.0999998"
       stroke="#000000"
       stroke-width="0.264583"
       fill="none"
       id="circle1352" />
    <circle
       cx="181.42992"
       cy="174.40007"
       r="1.0999998"
       stroke="#000000"
       stroke-width="0.264583"
       fill="none"
       id="circle1354" />
    <circle
       cx="187.53993"
       cy="174.40007"
       r="1.0999998"
       stroke="#000000"
       stroke-width="0.264583"
       fill="none"
       id="circle1356" />
    <circle
       cx="193.64996"
       cy="174.40007"
       r="1.0999998"
       stroke="#000000"
       stroke-width="0.264583"
       fill="none"
       id="circle1358" />
    <circle
       cx="199.75998"
       cy="174.40007"
       r="1.0999998"
       stroke="#000000"
       stroke-width="0.264583"
       fill="none"
       id="circle1360" />
    <circle
       cx="205.87001"
       cy="174.40007"
       r="1.0999998"
       stroke="#000000"
       stroke-width="0.264583"
       fill="none"
       id="circle1362" />
    <circle
       cx="163.10001"
       cy="168.70016"
       r="1.0999998"
       stroke="#000000"
       stroke-width="0.264583"
       fill="none"
       id="circle1364" />
    <circle
       cx="169.21001"
       cy="168.70016"
       r="1.0999998"
       stroke="#000000"
       stroke-width="0.264583"
       fill="none"
       id="circle1366" />
    <circle
       cx="175.32001"
       cy="168.70016"
       r="1.0999998"
       stroke="#000000"
       stroke-width="0.264583"
       fill="none"
       id="circle1368" />
    <circle
       cx="181.42992"
       cy="168.70016"
       r="1.0999998"
       stroke="#000000"
       stroke-width="0.264583"
       fill="none"
       id="circle1370" />
    <circle
       cx="187.53993"
       cy="168.70016"
       r="1.0999998"
       stroke="#000000"
       stroke-width="0.264583"
       fill="none"
       id="circle1372" />
    <circle
       cx="193.64996"
       cy="168.70016"
       r="1.0999998"
       stroke="#000000"
       stroke-width="0.264583"
       fill="none"
       id="circle1374" />
    <circle
       cx="199.75998"
       cy="168.70016"
       r="1.0999998"
       stroke="#000000"
       stroke-width="0.264583"
       fill="none"
       id="circle1376" />
    <circle
       cx="205.87001"
       cy="168.70016"
       r="1.0999998"
       stroke="#000000"
       stroke-width="0.264583"
       fill="none"
       id="circle1378" />
    <circle
       cx="163.10001"
       cy="162.99998"
       r="1.0999998"
       stroke="#000000"
       stroke-width="0.264583"
       fill="none"
       id="circle1380" />
    <circle
       cx="169.21001"
       cy="162.99998"
       r="1.0999998"
       stroke="#000000"
       stroke-width="0.264583"
       fill="none"
       id="circle1382" />
    <circle
       cx="175.32001"
       cy="162.99998"
       r="1.0999998"
       stroke="#000000"
       stroke-width="0.264583"
       fill="none"
       id="circle1384" />
    <circle
       cx="181.42992"
       cy="162.99998"
       r="1.0999998"
       stroke="#000000"
       stroke-width="0.264583"
       fill="none"
       id="circle1386" />
    <circle
       cx="187.53993"
       cy="162.99998"
       r="1.0999998"
       stroke="#000000"
       stroke-width="0.264583"
       fill="none"
       id="circle1388" />
    <circle
       cx="193.64996"
       cy="162.99998"
       r="1.0999998"
       stroke="#000000"
       stroke-width="0.264583"
       fill="none"
       id="circle1390" />
    <circle
       cx="199.75998"
       cy="162.99998"
       r="1.0999998"
       stroke="#000000"
       stroke-width="0.264583"
       fill="none"
       id="circle1392" />
    <circle
       cx="205.87001"
       cy="162.99998"
       r="1.0999998"
       stroke="#000000"
       stroke-width="0.264583"
       fill="none"
       id="circle1394" />
    <circle
       cx="169.21001"
       cy="157.30005"
       r="1.0999998"
       stroke="#000000"
       stroke-width="0.264583"
       fill="none"
       id="circle1396" />
    <circle
       cx="175.32001"
       cy="157.30005"
       r="1.0999998"
       stroke="#000000"
       stroke-width="0.264583"
       fill="none"
       id="circle1398" />
    <circle
       cx="181.42992"
       cy="157.30005"
       r="1.0999998"
       stroke="#000000"
       stroke-width="0.264583"
       fill="none"
       id="circle1400" />
    <circle
       cx="187.53993"
       cy="157.30005"
       r="1.0999998"
       stroke="#000000"
       stroke-width="0.264583"
       fill="none"
       id="circle1402" />
    <circle
       cx="193.64996"
       cy="157.30005"
       r="1.0999998"
       stroke="#000000"
       stroke-width="0.264583"
       fill="none"
       id="circle1404" />
    <circle
       cx="199.75998"
       cy="157.30005"
       r="1.0999998"
       stroke="#000000"
       stroke-width="0.264583"
       fill="none"
       id="circle1406" />
    <path
       d="M 221.29998,15.300033 V 194.69997 H 148.5 V 15.300033 Z"
       stroke="#000000"
       stroke-width="0.264583"
       fill="none"
       id="path1408" />
    <path
       d="m 228.65998,188.54999 c 0.73332,0 1.46667,0 2.20001,0 0.82841,0 1.49998,0.67151 1.49998,1.49992 0,0.0667 0,0.13335 0,0.20003 0,0.82841 -0.67157,1.50019 -1.49998,1.50019 -0.73334,0 -1.46669,0 -2.20001,0 -0.82844,0 -1.5,-0.67178 -1.5,-1.50019 0,-0.0667 0,-0.13335 0,-0.20003 0,-0.82841 0.67156,-1.49992 1.5,-1.49992 z"
       stroke="#000000"
       stroke-width="0.264583"
       fill="none"
       id="path1503" />
    <path
       d="m 284.54003,188.54999 c 0.73316,0 1.46659,0 2.20001,0 0.82841,0 1.49993,0.67151 1.49993,1.49992 0,0.0667 0,0.13335 0,0.20003 0,0.82841 -0.67152,1.50019 -1.49993,1.50019 -0.73342,0 -1.46685,0 -2.20001,0 -0.82841,0 -1.49992,-0.67178 -1.49992,-1.50019 0,-0.0667 0,-0.13335 0,-0.20003 0,-0.82841 0.67151,-1.49992 1.49992,-1.49992 z"
       stroke="#000000"
       stroke-width="0.264583"
       fill="none"
       id="path1505" />
    <path
       d="m 228.65998,18.250031 c 0.73332,0 1.46667,0 2.20001,0 0.82841,0 1.49998,0.671566 1.49998,1.500003 0,0.06668 0,0.133323 0,0.199998 0,0.828437 -0.67157,1.500002 -1.49998,1.500002 -0.73334,0 -1.46669,0 -2.20001,0 -0.82844,0 -1.5,-0.671565 -1.5,-1.500002 0,-0.06668 0,-0.133323 0,-0.199998 0,-0.828437 0.67156,-1.500003 1.5,-1.500003 z"
       stroke="#000000"
       stroke-width="0.264583"
       fill="none"
       id="path1507" />
    <path
       d="m 284.54003,18.250031 c 0.73316,0 1.46659,0 2.20001,0 0.82841,0 1.49993,0.671566 1.49993,1.500003 0,0.06668 0,0.133323 0,0.199998 0,0.828437 -0.67152,1.500002 -1.49993,1.500002 -0.73342,0 -1.46685,0 -2.20001,0 -0.82841,0 -1.49992,-0.671565 -1.49992,-1.500002 0,-0.06668 0,-0.133323 0,-0.199998 0,-0.828437 0.67151,-1.500003 1.49992,-1.500003 z"
       stroke="#000000"
       stroke-width="0.264583"
       fill="none"
       id="path1509" />
    <path
       d="M 293.1001,16.300034 V 193.70011 H 222.29998 V 16.300034 Z"
       stroke="#000000"
       stroke-width="0.264583"
       fill="none"
       id="path1511" />
    <path
       d="m 240.88699,41.991993 c 11.20878,0 22.41732,0 33.62586,0 0.55245,0 1.00013,0.447675 1.00013,1.000125 0,8.872008 0,17.744017 0,26.616025 0,0.552185 -0.44768,0.99986 -1.00013,0.99986 -11.20854,0 -22.41708,0 -33.62586,0 -0.5523,0 -1,-0.447675 -1,-0.99986 0,-8.872008 0,-17.744017 0,-26.616025 0,-0.55245 0.4477,-1.000125 1,-1.000125 z"
       stroke="#000000"
       stroke-width="0.264583"
       fill="none"
       id="path1513" />
    <circle
       cx="240.69998"
       cy="96.300102"
       r="3.4500079"
       stroke="#000000"
       stroke-width="0.264583"
       fill="none"
       id="circle1515" />
    <circle
       cx="274.69992"
       cy="96.300102"
       r="3.4500079"
       stroke="#000000"
       stroke-width="0.264583"
       fill="none"
       id="circle1517" />
    <circle
       cx="240.69998"
       cy="90.300148"
       r="1.5999988"
       stroke="#000000"
       stroke-width="0.264583"
       fill="none"
       id="circle1519" />
    <circle
       cx="274.69992"
       cy="90.300148"
       r="1.5999988"
       stroke="#000000"
       stroke-width="0.264583"
       fill="none"
       id="circle1521" />
    <circle
       cx="237.29997"
       cy="153.70013"
       r="3.9999974"
       stroke="#000000"
       stroke-width="0.264583"
       fill="none"
       id="circle1523" />
    <circle
       cx="257.29987"
       cy="153.70013"
       r="3.9999974"
       stroke="#000000"
       stroke-width="0.264583"
       fill="none"
       id="circle1525" />
    <circle
       cx="277.29999"
       cy="153.70013"
       r="3.9999974"
       stroke="#000000"
       stroke-width="0.264583"
       fill="none"
       id="circle1527" />
    <path
       d="M 294.09996,15.300033 V 194.69997 H 221.29998 V 15.300033 Z"
       stroke="#000000"
       stroke-width="0.264583"
       fill="none"
       id="path1529" />
    <text
       xml:space="preserve"
       style="font-weight:bold;font-size:7px;line-height:1.25;font-family:'Tw Cen MT';-inkscape-font-specification:'Tw Cen MT, Bold';letter-spacing:0px;word-spacing:0px;stroke-width:0.264583"
       x="90.730553"
       y="35.264"
       id="text8892"><tspan
         sodipodi:role="line"
         id="tspan8890"
         style="font-style:normal;font-variant:normal;font-weight:bold;font-stretch:normal;font-size:7px;font-family:'Orbitron Black';-inkscape-font-specification:'Orbitron Black,  Bold';stroke-width:0.264583"
         x="90.730553"
         y="35.264">ESR meter</tspan></text>
    <text
       xml:space="preserve"
       style="font-weight:bold;font-size:7px;line-height:1.25;font-family:'Tw Cen MT';-inkscape-font-specification:'Tw Cen MT, Bold';letter-spacing:0px;word-spacing:0px;stroke-width:0.264583"
       x="16.875572"
       y="35.264"
       id="text8892-0"><tspan
         sodipodi:role="line"
         id="tspan8890-9"
         style="font-style:normal;font-variant:normal;font-weight:bold;font-stretch:normal;font-size:7px;font-family:'Orbitron Black';-inkscape-font-specification:'Orbitron Black,  Bold';stroke-width:0.264583"
         x="16.875572"
         y="35.264">DMX tester</tspan></text>
    <text
       xml:space="preserve"
       style="font-weight:bold;font-size:7px;line-height:1.25;font-family:'Tw Cen MT';-inkscape-font-specification:'Tw Cen MT, Bold';letter-spacing:0px;word-spacing:0px;stroke-width:0.264583"
       x="158.52754"
       y="35.389999"
       id="text8892-2"><tspan
         sodipodi:role="line"
         id="tspan8890-4"
         style="font-style:normal;font-variant:normal;font-weight:bold;font-stretch:normal;font-size:7px;font-family:'Orbitron Black';-inkscape-font-specification:'Orbitron Black,  Bold';stroke-width:0.264583"
         x="158.52754"
         y="35.389999">Short Seeker</tspan></text>
    <text
       xml:space="preserve"
       style="font-weight:bold;font-size:7px;line-height:1.25;font-family:'Tw Cen MT';-inkscape-font-specification:'Tw Cen MT, Bold';letter-spacing:0px;word-spacing:0px;stroke-width:0.264583"
       x="237.53653"
       y="35.389999"
       id="text8892-8"><tspan
         sodipodi:role="line"
         id="tspan8890-6"
         style="font-style:normal;font-variant:normal;font-weight:bold;font-stretch:normal;font-size:7px;font-family:'Orbitron Black';-inkscape-font-specification:'Orbitron Black,  Bold';stroke-width:0.264583"
         x="237.53653"
         y="35.389999">VI tracker</tspan></text>
    <text
       xml:space="preserve"
       style="font-weight:bold;font-size:5px;line-height:1.25;font-family:'Tw Cen MT';-inkscape-font-specification:'Tw Cen MT, Bold';letter-spacing:0px;word-spacing:0px;stroke-width:0.264583"
       x="251.05988"
       y="138.60001"
       id="text30110"><tspan
         sodipodi:role="line"
         id="tspan30108"
         style="font-style:normal;font-variant:normal;font-weight:bold;font-stretch:normal;font-size:5px;font-family:'Orbitron Black';-inkscape-font-specification:'Orbitron Black,  Bold';stroke-width:0.264583"
         x="251.05988"
         y="138.60001">GND</tspan></text>
    <text
       xml:space="preserve"
       style="font-weight:bold;font-size:5px;line-height:1.25;font-family:'Tw Cen MT';-inkscape-font-specification:'Tw Cen MT, Bold';letter-spacing:0px;word-spacing:0px;stroke-width:0.264583"
       x="231.19748"
       y="138.60001"
       id="text30110-0"><tspan
         sodipodi:role="line"
         id="tspan30108-1"
         style="font-style:normal;font-variant:normal;font-weight:bold;font-stretch:normal;font-size:5px;font-family:'Orbitron Black';-inkscape-font-specification:'Orbitron Black,  Bold';stroke-width:0.264583"
         x="231.19748"
         y="138.60001">CH 1</tspan><tspan
         sodipodi:role="line"
         style="font-style:normal;font-variant:normal;font-weight:bold;font-stretch:normal;font-size:5px;font-family:'Orbitron Black';-inkscape-font-specification:'Orbitron Black,  Bold';stroke-width:0.264583"
         x="231.19748"
         y="145.02501"
         id="tspan33045" /></text>
    <text
       xml:space="preserve"
       style="font-weight:bold;font-size:5px;line-height:1.25;font-family:'Tw Cen MT';-inkscape-font-specification:'Tw Cen MT, Bold';letter-spacing:0px;word-spacing:0px;stroke-width:0.264583"
       x="176.03758"
       y="123.6"
       id="text30110-0-7"><tspan
         sodipodi:role="line"
         style="font-style:normal;font-variant:normal;font-weight:bold;font-stretch:normal;font-size:5px;font-family:'Orbitron Black';-inkscape-font-specification:'Orbitron Black,  Bold';stroke-width:0.264583"
         x="176.03758"
         y="123.6"
         id="tspan33045-6">Sense</tspan></text>
    <text
       xml:space="preserve"
       style="font-weight:bold;font-size:7px;line-height:1.25;font-family:'Tw Cen MT';-inkscape-font-specification:'Tw Cen MT, Bold';letter-spacing:0px;word-spacing:0px;stroke-width:0.264583"
       x="174.62744"
       y="132.604"
       id="text30110-0-0"><tspan
         sodipodi:role="line"
         style="font-style:normal;font-variant:normal;font-weight:bold;font-stretch:normal;font-size:7px;font-family:'Orbitron Black';-inkscape-font-specification:'Orbitron Black,  Bold';stroke-width:0.264583"
         x="174.62744"
         y="132.604"
         id="tspan3356">-</tspan></text>
    <text
       xml:space="preserve"
       style="font-weight:bold;font-size:7px;line-height:1.25;font-family:'Tw Cen MT';-inkscape-font-specification:'Tw Cen MT, Bold';letter-spacing:0px;word-spacing:0px;stroke-width:0.264583"
       x="158.6275"
       y="132.604"
       id="text30110-0-0-6"><tspan
         sodipodi:role="line"
         style="font-style:normal;font-variant:normal;font-weight:bold;font-stretch:normal;font-size:7px;font-family:'Orbitron Black';-inkscape-font-specification:'Orbitron Black,  Bold';stroke-width:0.264583"
         x="158.6275"
         y="132.604"
         id="tspan3356-9">-</tspan></text>
    <text
       xml:space="preserve"
       style="font-weight:bold;font-size:5px;line-height:1.25;font-family:'Tw Cen MT';-inkscape-font-specification:'Tw Cen MT, Bold';letter-spacing:0px;word-spacing:0px;stroke-width:0.264583"
       x="270.26248"
       y="138.60001"
       id="text30110-0-8"><tspan
         sodipodi:role="line"
         id="tspan30108-1-6"
         style="font-style:normal;font-variant:normal;font-weight:bold;font-stretch:normal;font-size:5px;font-family:'Orbitron Black';-inkscape-font-specification:'Orbitron Black,  Bold';stroke-width:0.264583"
         x="270.26248"
         y="138.60001">CH 2</tspan><tspan
         sodipodi:role="line"
         style="font-style:normal;font-variant:normal;font-weight:bold;font-stretch:normal;font-size:5px;font-family:'Orbitron Black';-inkscape-font-specification:'Orbitron Black,  Bold';stroke-width:0.264583"
         x="270.26248"
         y="145.02501"
         id="tspan33045-4" /></text>
    <text
       xml:space="preserve"
       style="font-weight:bold;font-size:5px;line-height:1.25;font-family:'Tw Cen MT';-inkscape-font-specification:'Tw Cen MT, Bold';letter-spacing:0px;word-spacing:0px;stroke-width:0.264583"
       x="15.230065"
       y="128.60001"
       id="text30110-9"><tspan
         sodipodi:role="line"
         id="tspan30108-3"
         style="font-style:normal;font-variant:normal;font-weight:bold;font-stretch:normal;font-size:5px;font-family:'Orbitron Black';-inkscape-font-specification:'Orbitron Black,  Bold';stroke-width:0.264583"
         x="15.230065"
         y="128.60001">INPUT</tspan></text>
    <text
       xml:space="preserve"
       style="font-weight:bold;font-size:5px;line-height:1.25;font-family:'Tw Cen MT';-inkscape-font-specification:'Tw Cen MT, Bold';letter-spacing:0px;word-spacing:0px;stroke-width:0.264583"
       x="41.829952"
       y="128.60001"
       id="text30110-9-2"><tspan
         sodipodi:role="line"
         id="tspan30108-3-6"
         style="font-style:normal;font-variant:normal;font-weight:bold;font-stretch:normal;font-size:5px;font-family:'Orbitron Black';-inkscape-font-specification:'Orbitron Black,  Bold';stroke-width:0.264583"
         x="41.829952"
         y="128.60001">OUTPUT</tspan></text>
    <g
       id="g45565"
       transform="translate(9.8500786,9.9999982)">
      <rect
         style="fill:#000000;fill-rule:evenodd;stroke:#000000;stroke-width:0.123562;stroke-linecap:square;paint-order:markers stroke fill"
         id="rect45422"
         width="1.3764379"
         height="7.8764377"
         x="100.06178"
         y="120.06178" />
      <rect
         style="fill:#000000;fill-rule:evenodd;stroke:#000000;stroke-width:0.123562;stroke-linecap:square;paint-order:markers stroke fill"
         id="rect45422-6"
         width="1.3764379"
         height="7.8764377"
         x="103.06178"
         y="120.06178" />
      <rect
         style="fill:#000000;fill-rule:evenodd;stroke:#000000;stroke-width:0.123562;stroke-linecap:square;paint-order:markers stroke fill"
         id="rect45422-68"
         width="7.8764381"
         height="1.3764379"
         x="92.061783"
         y="123.31178" />
      <rect
         style="fill:#000000;fill-rule:evenodd;stroke:#000000;stroke-width:0.123562;stroke-linecap:square;paint-order:markers stroke fill"
         id="rect45422-68-5"
         width="7.8764381"
         height="1.3764379"
         x="104.56178"
         y="123.31178" />
    </g>
    <text
       xml:space="preserve"
       style="font-weight:bold;font-size:7px;line-height:1.25;font-family:'Tw Cen MT';-inkscape-font-specification:'Tw Cen MT, Bold';letter-spacing:0px;word-spacing:0px;stroke-width:0.264583"
       x="190.92157"
       y="132.521"
       id="text30110-0-0-1"><tspan
         sodipodi:role="line"
         style="font-style:normal;font-variant:normal;font-weight:bold;font-stretch:normal;font-size:7px;font-family:'Orbitron Black';-inkscape-font-specification:'Orbitron Black,  Bold';stroke-width:0.264583"
         x="190.92157"
         y="132.521"
         id="tspan3356-2">+</tspan></text>
    <text
       xml:space="preserve"
       style="font-weight:bold;font-size:7px;line-height:1.25;font-family:'Tw Cen MT';-inkscape-font-specification:'Tw Cen MT, Bold';letter-spacing:0px;word-spacing:0px;stroke-width:0.264583"
       x="206.92146"
       y="132.521"
       id="text30110-0-0-1-8"><tspan
         sodipodi:role="line"
         style="font-style:normal;font-variant:normal;font-weight:bold;font-stretch:normal;font-size:7px;font-family:'Orbitron Black';-inkscape-font-specification:'Orbitron Black,  Bold';stroke-width:0.264583"
         x="206.92146"
         y="132.521"
         id="tspan3356-2-7">+</tspan></text>
    <text
       xml:space="preserve"
       style="font-weight:bold;font-size:5px;line-height:1.25;font-family:'Tw Cen MT';-inkscape-font-specification:'Tw Cen MT, Bold';letter-spacing:0px;word-spacing:0px;stroke-width:0.264583"
       x="176.19759"
       y="118.855"
       id="text30110-0-7-3"><tspan
         sodipodi:role="line"
         style="font-style:normal;font-variant:normal;font-weight:bold;font-stretch:normal;font-size:5px;font-family:'Orbitron Black';-inkscape-font-specification:'Orbitron Black,  Bold';stroke-width:0.264583"
         x="176.19759"
         y="118.855"
         id="tspan33045-6-7">Signal</tspan></text>
    <rect
       style="fill:#000000;fill-rule:evenodd;stroke:#000000;stroke-width:0.0216122;stroke-linecap:square;paint-order:markers stroke fill"
       id="rect21902"
       width="15.978388"
       height="1.0013878"
       x="176.91087"
       y="124.62098" />
    <rect
       style="fill:#000000;fill-rule:evenodd;stroke:#000000;stroke-width:0.0187415;stroke-linecap:square;paint-order:markers stroke fill"
       id="rect21902-8"
       width="11.981258"
       height="1.0042585"
       x="197.96883"
       y="116.99787" />
    <rect
       style="fill:#000000;fill-rule:evenodd;stroke:#000000;stroke-width:0.0187415;stroke-linecap:square;paint-order:markers stroke fill"
       id="rect21902-8-1"
       width="11.981258"
       height="1.0042585"
       x="159.04987"
       y="116.99787" />
    <rect
       style="fill:#000000;fill-rule:evenodd;stroke:#000000;stroke-width:0.023;stroke-linecap:square;paint-order:markers stroke fill"
       id="rect22050"
       width="1"
       height="3"
       x="159.04987"
       y="116.99787" />
    <rect
       style="fill:#000000;fill-rule:evenodd;stroke:#000000;stroke-width:0.023;stroke-linecap:square;paint-order:markers stroke fill"
       id="rect22050-3"
       width="1"
       height="3"
       x="176.91087"
       y="124.62098" />
    <rect
       style="fill:#000000;fill-rule:evenodd;stroke:#000000;stroke-width:0.023;stroke-linecap:square;paint-order:markers stroke fill"
       id="rect22050-7"
       width="1"
       height="3"
       x="191.88927"
       y="124.62098" />
    <rect
       style="fill:#000000;fill-rule:evenodd;stroke:#000000;stroke-width:0.023;stroke-linecap:square;paint-order:markers stroke fill"
       id="rect22050-5"
       width="1"
       height="3"
       x="208.95009"
       y="116.99787" />
  </g>
</svg>
