<?xml version="1.0" encoding="UTF-8" standalone="no"?>
<svg  version="1.1" xmlns="http://www.w3.org/2000/svg" width="267.591px" height="670.488px">
<path d="M24.0378 651.024 C26.8094 651.024, 29.5811 651.024, 32.3528 651.024 C35.4838 651.024, 38.022 653.562, 38.022 656.693 C38.022 656.945, 38.022 657.197, 38.022 657.449 C38.022 660.58, 35.4838 663.118, 32.3528 663.118 C29.5811 663.118, 26.8094 663.118, 24.0378 663.118 C20.9067 663.118, 18.3685 660.58, 18.3685 657.449 C18.3685 657.197, 18.3685 656.945, 18.3685 656.693 C18.3685 653.562, 20.9067 651.024, 24.0378 651.024 Z " stroke="black" stroke-width="1" fill="none" />

<path d="M235.238 651.024 C238.009 651.024, 240.781 651.024, 243.553 651.024 C246.684 651.024, 249.222 653.562, 249.222 656.693 C249.222 656.945, 249.222 657.197, 249.222 657.449 C249.222 660.58, 246.684 663.118, 243.553 663.118 C240.781 663.118, 238.009 663.118, 235.238 663.118 C232.107 663.118, 229.569 660.58, 229.569 657.449 C229.569 657.197, 229.569 656.945, 229.569 656.693 C229.569 653.562, 232.107 651.024, 235.238 651.024 Z " stroke="black" stroke-width="1" fill="none" />

<path d="M24.0378 7.37008 C26.8094 7.37008, 29.5811 7.37008, 32.3528 7.37008 C35.4838 7.37008, 38.022 9.90831, 38.022 13.0394 C38.022 13.2913, 38.022 13.5433, 38.022 13.7953 C38.022 16.9263, 35.4838 19.4646, 32.3528 19.4646 C29.5811 19.4646, 26.8094 19.4646, 24.0378 19.4646 C20.9067 19.4646, 18.3685 16.9263, 18.3685 13.7953 C18.3685 13.5433, 18.3685 13.2913, 18.3685 13.0394 C18.3685 9.90831, 20.9067 7.37008, 24.0378 7.37008 Z " stroke="black" stroke-width="1" fill="none" />

<path d="M235.238 7.37008 C238.009 7.37008, 240.781 7.37008, 243.553 7.37008 C246.684 7.37008, 249.222 9.90831, 249.222 13.0394 C249.222 13.2913, 249.222 13.5433, 249.222 13.7953 C249.222 16.9263, 246.684 19.4646, 243.553 19.4646 C240.781 19.4646, 238.009 19.4646, 235.238 19.4646 C232.107 19.4646, 229.569 16.9263, 229.569 13.7953 C229.569 13.5433, 229.569 13.2913, 229.569 13.0394 C229.569 9.90831, 232.107 7.37008, 235.238 7.37008 Z " stroke="black" stroke-width="1" fill="none" />

<path d="M267.591 0 L267.591 670.488 L0 670.488 L0 0 L267.591 0 Z " stroke="black" stroke-width="1" fill="none" />

<path d="M70.2501 97.1036 C112.614 97.1036, 154.977 97.1036, 197.34 97.1036 C199.428 97.1036, 201.12 98.7958, 201.12 100.883 C201.12 134.415, 201.12 167.947, 201.12 201.479 C201.12 203.566, 199.428 205.259, 197.34 205.259 C154.977 205.259, 112.614 205.259, 70.2501 205.259 C68.1627 205.259, 66.4706 203.566, 66.4706 201.479 C66.4706 167.947, 66.4706 134.415, 66.4706 100.883 C66.4706 98.7958, 68.1627 97.1036, 70.2501 97.1036 Z " stroke="black" stroke-width="1" fill="none" />

<circle cx="69.5433" cy="302.362" r="13.0394" stroke="black" stroke-width="1" fill="none" />


<circle cx="198.047" cy="302.362" r="13.0394" stroke="black" stroke-width="1" fill="none" />


<circle cx="74.4945" cy="619.087" r="4.15748" stroke="black" stroke-width="1" fill="none" />


<circle cx="97.5874" cy="619.087" r="4.15748" stroke="black" stroke-width="1" fill="none" />


<circle cx="120.68" cy="619.087" r="4.15748" stroke="black" stroke-width="1" fill="none" />


<circle cx="143.773" cy="619.087" r="4.15748" stroke="black" stroke-width="1" fill="none" />


<circle cx="166.866" cy="619.087" r="4.15748" stroke="black" stroke-width="1" fill="none" />


<circle cx="189.959" cy="619.087" r="4.15748" stroke="black" stroke-width="1" fill="none" />


<circle cx="51.4016" cy="597.543" r="4.15748" stroke="black" stroke-width="1" fill="none" />


<circle cx="74.4945" cy="597.543" r="4.15748" stroke="black" stroke-width="1" fill="none" />


<circle cx="97.5874" cy="597.543" r="4.15748" stroke="black" stroke-width="1" fill="none" />


<circle cx="120.68" cy="597.543" r="4.15748" stroke="black" stroke-width="1" fill="none" />


<circle cx="143.773" cy="597.543" r="4.15748" stroke="black" stroke-width="1" fill="none" />


<circle cx="166.866" cy="597.543" r="4.15748" stroke="black" stroke-width="1" fill="none" />


<circle cx="189.959" cy="597.543" r="4.15748" stroke="black" stroke-width="1" fill="none" />


<circle cx="213.052" cy="597.543" r="4.15748" stroke="black" stroke-width="1" fill="none" />


<circle cx="51.4016" cy="576" r="4.15748" stroke="black" stroke-width="1" fill="none" />


<circle cx="74.4945" cy="576" r="4.15748" stroke="black" stroke-width="1" fill="none" />


<circle cx="97.5874" cy="576" r="4.15748" stroke="black" stroke-width="1" fill="none" />


<circle cx="120.68" cy="576" r="4.15748" stroke="black" stroke-width="1" fill="none" />


<circle cx="143.773" cy="576" r="4.15748" stroke="black" stroke-width="1" fill="none" />


<circle cx="166.866" cy="576" r="4.15748" stroke="black" stroke-width="1" fill="none" />


<circle cx="189.959" cy="576" r="4.15748" stroke="black" stroke-width="1" fill="none" />


<circle cx="213.052" cy="576" r="4.15748" stroke="black" stroke-width="1" fill="none" />


<circle cx="51.4016" cy="554.457" r="4.15748" stroke="black" stroke-width="1" fill="none" />


<circle cx="74.4945" cy="554.457" r="4.15748" stroke="black" stroke-width="1" fill="none" />


<circle cx="97.5874" cy="554.457" r="4.15748" stroke="black" stroke-width="1" fill="none" />


<circle cx="120.68" cy="554.457" r="4.15748" stroke="black" stroke-width="1" fill="none" />


<circle cx="143.773" cy="554.457" r="4.15748" stroke="black" stroke-width="1" fill="none" />


<circle cx="166.866" cy="554.457" r="4.15748" stroke="black" stroke-width="1" fill="none" />


<circle cx="189.959" cy="554.457" r="4.15748" stroke="black" stroke-width="1" fill="none" />


<circle cx="213.052" cy="554.457" r="4.15748" stroke="black" stroke-width="1" fill="none" />


<circle cx="74.4945" cy="532.913" r="4.15748" stroke="black" stroke-width="1" fill="none" />


<circle cx="97.5874" cy="532.913" r="4.15748" stroke="black" stroke-width="1" fill="none" />


<circle cx="120.68" cy="532.913" r="4.15748" stroke="black" stroke-width="1" fill="none" />


<circle cx="143.773" cy="532.913" r="4.15748" stroke="black" stroke-width="1" fill="none" />


<circle cx="166.866" cy="532.913" r="4.15748" stroke="black" stroke-width="1" fill="none" />


<circle cx="189.959" cy="532.913" r="4.15748" stroke="black" stroke-width="1" fill="none" />


<path d="M120.435 438.191 C120.435 438.191, 121.085 438.814, 121.085 438.814 C121.085 438.814, 121.765 439.4, 121.765 439.4 C121.765 439.4, 122.494 439.971, 122.494 439.971 C122.494 439.971, 123.216 440.485, 123.216 440.485 C123.216 440.485, 123.999 440.988, 123.999 440.988 C123.999 440.988, 124.774 441.43, 124.774 441.43 C124.774 441.43, 125.605 441.857, 125.605 441.857 C125.605 441.857, 126.44 442.235, 126.44 442.235 C126.44 442.235, 127.283 442.568, 127.283 442.568 C127.283 442.568, 128.194 442.877, 128.194 442.877 C128.194 442.877, 129.056 443.119, 129.056 443.119 C129.056 443.119, 129.997 443.339, 129.997 443.339 C129.997 443.339, 130.919 443.501, 130.919 443.501 C130.919 443.501, 131.853 443.622, 131.853 443.622 C131.853 443.622, 132.809 443.694, 132.809 443.694 C132.809 443.694, 133.814 443.717, 133.814 443.717 C133.814 443.717, 134.778 443.694, 134.778 443.694 C134.778 443.694, 135.738 443.622, 135.738 443.622 C135.738 443.622, 136.671 443.501, 136.671 443.501 C136.671 443.501, 137.605 443.335, 137.605 443.335 C137.605 443.335, 138.531 443.119, 138.531 443.119 C138.531 443.119, 139.419 442.87, 139.419 442.87 C139.419 442.87, 140.304 442.568, 140.304 442.568 C140.304 442.568, 141.146 442.235, 141.146 442.235 C141.146 442.235, 141.974 441.861, 141.974 441.861 C141.974 441.861, 142.809 441.434, 142.809 441.434 C142.809 441.434, 143.596 440.984, 143.596 440.984 C143.596 440.984, 144.374 440.481, 144.374 440.481 C144.374 440.481, 145.096 439.967, 145.096 439.967 C145.096 439.967, 145.818 439.4, 145.818 439.4 C145.818 439.4, 146.498 438.814, 146.498 438.814 C146.498 438.814, 147.171 438.172, 147.171 438.172 C147.171 438.172, 147.787 437.526, 147.787 437.526 C147.787 437.526, 148.388 436.826, 148.388 436.826 C148.388 436.826, 148.993 436.048, 148.993 436.048 C148.993 436.048, 149.061 435.904, 149.061 435.904 C149.061 435.904, 149.087 435.81, 149.087 435.81 C149.087 435.81, 149.102 435.704, 149.102 435.704 C149.102 435.704, 149.102 413.941, 149.102 413.941 C149.102 413.941, 149.091 413.851, 149.091 413.851 C149.091 413.851, 149.065 413.749, 149.065 413.749 C149.065 413.749, 149.027 413.658, 149.027 413.658 C149.027 413.658, 148.97 413.56, 148.97 413.56 C148.97 413.56, 148.388 412.815, 148.388 412.815 C148.388 412.815, 147.787 412.116, 147.787 412.116 C147.787 412.116, 147.145 411.443, 147.145 411.443 C147.145 411.443, 146.498 410.827, 146.498 410.827 C146.498 410.827, 145.814 410.237, 145.814 410.237 C145.814 410.237, 145.092 409.671, 145.092 409.671 C145.092 409.671, 144.37 409.157, 144.37 409.157 C144.37 409.157, 143.588 408.654, 143.588 408.654 C143.588 408.654, 142.813 408.212, 142.813 408.212 C142.813 408.212, 141.982 407.785, 141.982 407.785 C141.982 407.785, 141.146 407.407, 141.146 407.407 C141.146 407.407, 140.304 407.074, 140.304 407.074 C140.304 407.074, 139.393 406.764, 139.393 406.764 C139.393 406.764, 138.531 406.522, 138.531 406.522 C138.531 406.522, 137.59 406.303, 137.59 406.303 C137.59 406.303, 136.668 406.14, 136.668 406.14 C136.668 406.14, 135.734 406.02, 135.734 406.02 C135.734 406.02, 134.782 405.948, 134.782 405.948 C134.782 405.948, 133.773 405.921, 133.773 405.921 C133.773 405.921, 132.809 405.948, 132.809 405.948 C132.809 405.948, 131.849 406.02, 131.849 406.02 C131.849 406.02, 130.915 406.14, 130.915 406.14 C130.915 406.14, 129.982 406.307, 129.982 406.307 C129.982 406.307, 129.056 406.522, 129.056 406.522 C129.056 406.522, 128.168 406.772, 128.168 406.772 C128.168 406.772, 127.283 407.074, 127.283 407.074 C127.283 407.074, 126.44 407.407, 126.44 407.407 C126.44 407.407, 125.613 407.781, 125.613 407.781 C125.613 407.781, 124.777 408.208, 124.777 408.208 C124.777 408.208, 123.991 408.658, 123.991 408.658 C123.991 408.658, 123.213 409.16, 123.213 409.16 C123.213 409.16, 122.479 409.682, 122.479 409.682 C122.479 409.682, 121.765 410.241, 121.765 410.241 C121.765 410.241, 121.085 410.827, 121.085 410.827 C121.085 410.827, 120.416 411.47, 120.416 411.47 C120.416 411.47, 119.8 412.116, 119.8 412.116 C119.8 412.116, 119.21 412.8, 119.21 412.8 C119.21 412.8, 118.643 413.522, 118.643 413.522 C118.643 413.522, 118.129 414.244, 118.129 414.244 C118.129 414.244, 117.626 415.026, 117.626 415.026 C117.626 415.026, 117.184 415.801, 117.184 415.801 C117.184 415.801, 116.757 416.632, 116.757 416.632 C116.757 416.632, 116.379 417.468, 116.379 417.468 C116.379 417.468, 116.047 418.311, 116.047 418.311 C116.047 418.311, 115.737 419.221, 115.737 419.221 C115.737 419.221, 115.495 420.083, 115.495 420.083 C115.495 420.083, 115.276 421.024, 115.276 421.024 C115.276 421.024, 115.113 421.943, 115.113 421.943 C115.113 421.943, 114.992 422.884, 114.992 422.884 C114.992 422.884, 114.92 423.84, 114.92 423.84 C114.92 423.84, 114.898 424.974, 114.898 424.974 C114.898 424.974, 114.92 425.809, 114.92 425.809 C114.92 425.809, 114.992 426.765, 114.992 426.765 C114.992 426.765, 115.113 427.699, 115.113 427.699 C115.113 427.699, 115.279 428.632, 115.279 428.632 C115.279 428.632, 115.495 429.558, 115.495 429.558 C115.495 429.558, 115.744 430.447, 115.744 430.447 C115.744 430.447, 116.047 431.331, 116.047 431.331 C116.047 431.331, 116.379 432.174, 116.379 432.174 C116.379 432.174, 116.753 433.002, 116.753 433.002 C116.753 433.002, 117.18 433.837, 117.18 433.837 C117.18 433.837, 117.63 434.623, 117.63 434.623 C117.63 434.623, 118.133 435.402, 118.133 435.402 C118.133 435.402, 118.647 436.123, 118.647 436.123 C118.647 436.123, 119.214 436.845, 119.214 436.845 C119.214 436.845, 119.8 437.526, 119.8 437.526 C119.8 437.526, 120.435 438.191, 120.435 438.191 Z " stroke="black" stroke-width="1" fill="none" />

</svg>
