<?xml version="1.0" encoding="UTF-8" standalone="no"?>
<svg  version="1.1" xmlns="http://www.w3.org/2000/svg" width="267.591px" height="670.488px">
<path d="M24.0378 651.024 C26.8094 651.024, 29.5811 651.024, 32.3528 651.024 C35.4838 651.024, 38.022 653.562, 38.022 656.693 C38.022 656.945, 38.022 657.197, 38.022 657.449 C38.022 660.58, 35.4838 663.118, 32.3528 663.118 C29.5811 663.118, 26.8094 663.118, 24.0378 663.118 C20.9067 663.118, 18.3685 660.58, 18.3685 657.449 C18.3685 657.197, 18.3685 656.945, 18.3685 656.693 C18.3685 653.562, 20.9067 651.024, 24.0378 651.024 Z " stroke="black" stroke-width="1" fill="none" />

<path d="M235.238 651.024 C238.009 651.024, 240.781 651.024, 243.553 651.024 C246.684 651.024, 249.222 653.562, 249.222 656.693 C249.222 656.945, 249.222 657.197, 249.222 657.449 C249.222 660.58, 246.684 663.118, 243.553 663.118 C240.781 663.118, 238.009 663.118, 235.238 663.118 C232.107 663.118, 229.569 660.58, 229.569 657.449 C229.569 657.197, 229.569 656.945, 229.569 656.693 C229.569 653.562, 232.107 651.024, 235.238 651.024 Z " stroke="black" stroke-width="1" fill="none" />

<path d="M24.0378 7.37008 C26.8094 7.37008, 29.5811 7.37008, 32.3528 7.37008 C35.4838 7.37008, 38.022 9.90831, 38.022 13.0394 C38.022 13.2913, 38.022 13.5433, 38.022 13.7953 C38.022 16.9263, 35.4838 19.4646, 32.3528 19.4646 C29.5811 19.4646, 26.8094 19.4646, 24.0378 19.4646 C20.9067 19.4646, 18.3685 16.9263, 18.3685 13.7953 C18.3685 13.5433, 18.3685 13.2913, 18.3685 13.0394 C18.3685 9.90831, 20.9067 7.37008, 24.0378 7.37008 Z " stroke="black" stroke-width="1" fill="none" />

<path d="M235.238 7.37008 C238.009 7.37008, 240.781 7.37008, 243.553 7.37008 C246.684 7.37008, 249.222 9.90831, 249.222 13.0394 C249.222 13.2913, 249.222 13.5433, 249.222 13.7953 C249.222 16.9263, 246.684 19.4646, 243.553 19.4646 C240.781 19.4646, 238.009 19.4646, 235.238 19.4646 C232.107 19.4646, 229.569 16.9263, 229.569 13.7953 C229.569 13.5433, 229.569 13.2913, 229.569 13.0394 C229.569 9.90831, 232.107 7.37008, 235.238 7.37008 Z " stroke="black" stroke-width="1" fill="none" />

<path d="M267.591 0 L267.591 670.488 L0 670.488 L0 0 L267.591 0 Z " stroke="black" stroke-width="1" fill="none" />

<path d="M70.2501 97.1036 C112.614 97.1036, 154.977 97.1036, 197.34 97.1036 C199.428 97.1036, 201.12 98.7958, 201.12 100.883 C201.12 134.415, 201.12 167.947, 201.12 201.479 C201.12 203.566, 199.428 205.259, 197.34 205.259 C154.977 205.259, 112.614 205.259, 70.2501 205.259 C68.1627 205.259, 66.4706 203.566, 66.4706 201.479 C66.4706 167.947, 66.4706 134.415, 66.4706 100.883 C66.4706 98.7958, 68.1627 97.1036, 70.2501 97.1036 Z " stroke="black" stroke-width="1" fill="none" />

<circle cx="69.5433" cy="302.362" r="13.0394" stroke="black" stroke-width="1" fill="none" />


<circle cx="198.047" cy="302.362" r="13.0394" stroke="black" stroke-width="1" fill="none" />


<path d="M120.435 494.884 C120.435 494.884, 121.085 495.507, 121.085 495.507 C121.085 495.507, 121.765 496.093, 121.765 496.093 C121.765 496.093, 122.494 496.664, 122.494 496.664 C122.494 496.664, 123.216 497.178, 123.216 497.178 C123.216 497.178, 123.999 497.681, 123.999 497.681 C123.999 497.681, 124.774 498.123, 124.774 498.123 C124.774 498.123, 125.605 498.55, 125.605 498.55 C125.605 498.55, 126.44 498.928, 126.44 498.928 C126.44 498.928, 127.283 499.26, 127.283 499.26 C127.283 499.26, 128.194 499.57, 128.194 499.57 C128.194 499.57, 129.056 499.812, 129.056 499.812 C129.056 499.812, 129.997 500.031, 129.997 500.031 C129.997 500.031, 130.919 500.194, 130.919 500.194 C130.919 500.194, 131.853 500.315, 131.853 500.315 C131.853 500.315, 132.809 500.387, 132.809 500.387 C132.809 500.387, 133.814 500.409, 133.814 500.409 C133.814 500.409, 134.778 500.387, 134.778 500.387 C134.778 500.387, 135.738 500.315, 135.738 500.315 C135.738 500.315, 136.671 500.194, 136.671 500.194 C136.671 500.194, 137.605 500.028, 137.605 500.028 C137.605 500.028, 138.531 499.812, 138.531 499.812 C138.531 499.812, 139.419 499.563, 139.419 499.563 C139.419 499.563, 140.304 499.26, 140.304 499.26 C140.304 499.26, 141.146 498.928, 141.146 498.928 C141.146 498.928, 141.974 498.554, 141.974 498.554 C141.974 498.554, 142.809 498.127, 142.809 498.127 C142.809 498.127, 143.596 497.677, 143.596 497.677 C143.596 497.677, 144.374 497.174, 144.374 497.174 C144.374 497.174, 145.096 496.66, 145.096 496.66 C145.096 496.66, 145.818 496.093, 145.818 496.093 C145.818 496.093, 146.498 495.507, 146.498 495.507 C146.498 495.507, 147.171 494.865, 147.171 494.865 C147.171 494.865, 147.787 494.219, 147.787 494.219 C147.787 494.219, 148.388 493.519, 148.388 493.519 C148.388 493.519, 148.993 492.741, 148.993 492.741 C148.993 492.741, 149.061 492.597, 149.061 492.597 C149.061 492.597, 149.087 492.503, 149.087 492.503 C149.087 492.503, 149.102 492.397, 149.102 492.397 C149.102 492.397, 149.102 470.642, 149.102 470.642 C149.102 470.642, 149.087 470.529, 149.087 470.529 C149.087 470.529, 149.057 470.426, 149.057 470.426 C149.057 470.426, 148.966 470.253, 148.966 470.253 C148.966 470.253, 148.388 469.508, 148.388 469.508 C148.388 469.508, 147.787 468.809, 147.787 468.809 C147.787 468.809, 147.145 468.136, 147.145 468.136 C147.145 468.136, 146.498 467.52, 146.498 467.52 C146.498 467.52, 145.814 466.93, 145.814 466.93 C145.814 466.93, 145.092 466.363, 145.092 466.363 C145.092 466.363, 144.37 465.849, 144.37 465.849 C144.37 465.849, 143.588 465.347, 143.588 465.347 C143.588 465.347, 142.809 464.901, 142.809 464.901 C142.809 464.901, 141.97 464.477, 141.97 464.477 C141.97 464.477, 141.139 464.096, 141.139 464.096 C141.139 464.096, 140.292 463.767, 140.292 463.767 C140.292 463.767, 139.404 463.461, 139.404 463.461 C139.404 463.461, 138.516 463.215, 138.516 463.215 C138.516 463.215, 137.59 462.996, 137.59 462.996 C137.59 462.996, 136.668 462.833, 136.668 462.833 C136.668 462.833, 135.734 462.712, 135.734 462.712 C135.734 462.712, 134.782 462.641, 134.782 462.641 C134.782 462.641, 133.773 462.614, 133.773 462.614 C133.773 462.614, 132.809 462.641, 132.809 462.641 C132.809 462.641, 131.849 462.712, 131.849 462.712 C131.849 462.712, 130.915 462.833, 130.915 462.833 C130.915 462.833, 129.963 463.003, 129.963 463.003 C129.963 463.003, 129.086 463.211, 129.086 463.211 C129.086 463.211, 128.179 463.461, 128.179 463.461 C128.179 463.461, 127.294 463.767, 127.294 463.767 C127.294 463.767, 126.452 464.096, 126.452 464.096 C126.452 464.096, 125.616 464.477, 125.616 464.477 C125.616 464.477, 124.777 464.901, 124.777 464.901 C124.777 464.901, 123.991 465.351, 123.991 465.351 C123.991 465.351, 123.213 465.853, 123.213 465.853 C123.213 465.853, 122.479 466.375, 122.479 466.375 C122.479 466.375, 121.765 466.934, 121.765 466.934 C121.765 466.934, 121.085 467.52, 121.085 467.52 C121.085 467.52, 120.416 468.163, 120.416 468.163 C120.416 468.163, 119.8 468.809, 119.8 468.809 C119.8 468.809, 119.214 469.489, 119.214 469.489 C119.214 469.489, 118.658 470.2, 118.658 470.2 C118.658 470.2, 118.129 470.937, 118.129 470.937 C118.129 470.937, 117.626 471.719, 117.626 471.719 C117.626 471.719, 117.184 472.494, 117.184 472.494 C117.184 472.494, 116.753 473.333, 116.753 473.333 C116.753 473.333, 116.383 474.157, 116.383 474.157 C116.383 474.157, 116.047 475.003, 116.047 475.003 C116.047 475.003, 115.737 475.914, 115.737 475.914 C115.737 475.914, 115.495 476.776, 115.495 476.776 C115.495 476.776, 115.276 477.717, 115.276 477.717 C115.276 477.717, 115.113 478.636, 115.113 478.636 C115.113 478.636, 114.992 479.577, 114.992 479.577 C114.992 479.577, 114.92 480.533, 114.92 480.533 C114.92 480.533, 114.898 481.667, 114.898 481.667 C114.898 481.667, 114.92 482.502, 114.92 482.502 C114.92 482.502, 114.992 483.458, 114.992 483.458 C114.992 483.458, 115.113 484.392, 115.113 484.392 C115.113 484.392, 115.279 485.325, 115.279 485.325 C115.279 485.325, 115.495 486.251, 115.495 486.251 C115.495 486.251, 115.744 487.14, 115.744 487.14 C115.744 487.14, 116.047 488.024, 116.047 488.024 C116.047 488.024, 116.379 488.867, 116.379 488.867 C116.379 488.867, 116.753 489.694, 116.753 489.694 C116.753 489.694, 117.18 490.53, 117.18 490.53 C117.18 490.53, 117.63 491.316, 117.63 491.316 C117.63 491.316, 118.133 492.094, 118.133 492.094 C118.133 492.094, 118.647 492.816, 118.647 492.816 C118.647 492.816, 119.214 493.538, 119.214 493.538 C119.214 493.538, 119.8 494.219, 119.8 494.219 C119.8 494.219, 120.435 494.884, 120.435 494.884 Z " stroke="black" stroke-width="1" fill="none" />

</svg>
